<svg xmlns="http://www.w3.org/2000/svg" viewBox="0 0 906 147" fill="none" aria-label="Arena Physica"><g fill="black"><path d="M181.474 112.48V109.616C183.995 109.54 186.362 108.738 188.577 107.21C190.869 105.606 192.931 102.589 194.764 98.1591L224.209 29.8749H231.427L260.757 98.2737C262.514 102.322 264.5 105.224 266.715 106.981C268.93 108.661 271.565 109.54 274.62 109.616V112.48H238.301V109.616C244.259 109.54 247.963 108.776 249.415 107.325C250.942 105.797 250.904 103.124 249.3 99.3048L223.292 38.0094L226.042 37.0928L199.691 99.3048C198.087 103.2 197.972 105.874 199.347 107.325C200.722 108.776 204.235 109.54 209.888 109.616V112.48H181.474ZM204.044 83.7232L205.534 79.0258H243.457L244.832 83.7232H204.044ZM297.379 67.225C298.753 63.024 300.739 59.8542 303.336 57.7156C306.01 55.5769 308.721 54.5076 311.471 54.5076C313.991 54.5076 316.015 55.195 317.543 56.5699C319.147 57.9447 319.949 59.5105 319.949 61.2673C319.949 62.7949 319.453 64.0552 318.46 65.0481C317.467 66.0411 316.245 66.5375 314.793 66.5375C313.724 66.5375 312.846 66.2702 312.158 65.7355C311.547 65.2009 311.051 64.628 310.669 64.017C310.363 63.4059 309.943 62.8331 309.408 62.2984C308.95 61.7638 308.225 61.4964 307.232 61.4964C305.551 61.4964 303.947 62.2984 302.42 63.9024C300.968 65.5064 299.746 67.5687 298.753 70.0892C297.837 72.6098 297.379 75.2449 297.379 77.9946V102.398C297.379 104.842 298.295 106.561 300.128 107.554C301.961 108.547 304.826 109.234 308.721 109.616V112.48H279.047V109.616C282.179 109.234 284.356 108.509 285.578 107.439C286.876 106.294 287.525 104.613 287.525 102.398V66.423C287.525 64.819 287.105 63.6351 286.265 62.8713C285.501 62.0311 284.203 61.611 282.37 61.611H278.474V58.7467L294.514 55.0805H297.379V67.225ZM347.286 113.397C341.863 113.397 337.089 112.213 332.964 109.845C328.916 107.478 325.746 104.193 323.455 99.9922C321.24 95.7149 320.133 90.7884 320.133 85.2126C320.133 80.477 320.858 76.2379 322.309 72.4952C323.761 68.6762 325.746 65.43 328.267 62.7567C330.788 60.0834 333.766 58.0593 337.204 56.6844C340.641 55.2332 344.307 54.5076 348.202 54.5076C351.945 54.5076 355.191 55.1186 357.941 56.3407C360.767 57.5628 363.097 59.2814 364.93 61.4964C366.839 63.7115 368.214 66.2702 369.054 69.1727C369.894 72.0751 370.238 75.2449 370.085 78.6821H328.611V75.0158H355.191C356.108 75.0158 356.872 74.863 357.483 74.5575C358.094 74.1756 358.552 73.6409 358.857 72.9535C359.239 72.2661 359.43 71.4641 359.43 70.5475C359.43 67.1104 358.361 64.2079 356.222 61.8401C354.084 59.396 351.143 58.1739 347.4 58.1739C344.88 58.1739 342.55 58.7467 340.412 59.8924C338.273 60.9618 336.44 62.5276 334.912 64.5898C333.385 66.6521 332.201 69.0963 331.36 71.9224C330.52 74.7485 330.1 77.8801 330.1 81.3172C330.1 86.3583 330.94 90.7502 332.621 94.4928C334.301 98.2355 336.669 101.138 339.724 103.2C342.856 105.186 346.56 106.179 350.838 106.179C355.268 106.179 358.972 104.995 361.951 102.627C364.93 100.26 367.107 96.937 368.481 92.6597H371.346C369.894 99.3812 367.145 104.537 363.097 108.127C359.125 111.64 353.855 113.397 347.286 113.397ZM392.831 67.5687C394.512 63.3677 397.147 60.1598 400.737 57.9447C404.327 55.6533 408.298 54.5076 412.652 54.5076C416.318 54.5076 419.488 55.3096 422.161 56.9136C424.911 58.4412 427.012 60.6562 428.463 63.5587C429.99 66.4612 430.754 69.8601 430.754 73.7555V102.513C430.754 104.575 431.404 106.179 432.702 107.325C434 108.394 436.483 109.158 440.149 109.616V112.48H411.965V109.616C415.402 109.158 417.731 108.432 418.953 107.439C420.252 106.37 420.901 104.728 420.901 102.513V74.5575C420.901 70.3566 419.832 67.1104 417.693 64.819C415.555 62.4512 412.385 61.2673 408.184 61.2673C405.892 61.2673 403.563 61.9165 401.195 63.215C398.827 64.5135 396.841 66.3466 395.237 68.7144C393.633 71.0058 392.831 73.7937 392.831 77.0781V102.513C392.831 104.728 393.481 106.37 394.779 107.439C396.154 108.432 398.522 109.158 401.882 109.616V112.48H373.698V109.616C377.364 109.158 379.808 108.432 381.031 107.439C382.329 106.37 382.978 104.728 382.978 102.513V66.423C382.978 64.819 382.558 63.6351 381.718 62.8713C380.954 62.0311 379.656 61.611 377.823 61.611H373.927V58.7467L389.967 55.0805H392.831V67.5687ZM461.022 113.397C458.12 113.397 455.37 112.824 452.773 111.678C450.253 110.533 448.191 108.852 446.587 106.637C445.059 104.422 444.295 101.787 444.295 98.732C444.295 95.9823 444.868 93.5763 446.014 91.514C447.236 89.4517 449.26 87.6186 452.086 86.0146C454.988 84.3342 458.998 82.6157 464.116 80.8589L473.625 77.7655C475.382 77.0781 476.604 76.1233 477.292 74.9012C478.055 73.6791 478.437 72.2279 478.437 70.5475L479.468 79.4841L467.668 83.6086C463.696 85.0598 460.526 86.7784 458.158 88.7643C455.79 90.6738 454.606 93.3471 454.606 96.7843C454.606 98.9993 455.103 100.871 456.096 102.398C457.089 103.926 458.349 105.072 459.877 105.835C461.481 106.523 463.161 106.866 464.918 106.866C466.98 106.866 469.042 106.294 471.105 105.148C473.243 103.926 475 102.207 476.375 99.9922C477.75 97.7772 478.437 95.1803 478.437 92.2014L479.468 97.5863C478.705 101.253 477.368 104.27 475.458 106.637C473.625 108.929 471.41 110.647 468.813 111.793C466.293 112.862 463.696 113.397 461.022 113.397ZM478.437 70.433C478.437 66.4612 477.292 63.4059 475 61.2673C472.785 59.1286 469.844 58.0593 466.178 58.0593C462.665 58.0593 459.953 58.8995 458.044 60.5799C456.21 62.1838 455.294 64.0552 455.294 66.1938C455.294 67.1104 455.37 67.8742 455.523 68.4852C455.676 69.0199 455.752 69.7073 455.752 70.5475C455.752 71.9988 455.218 73.1827 454.148 74.0992C453.079 74.9394 451.819 75.3595 450.367 75.3595C448.84 75.3595 447.579 74.863 446.587 73.8701C445.67 72.8771 445.212 71.6169 445.212 70.0892C445.212 67.3395 446.166 64.7808 448.076 62.413C449.985 60.0452 452.582 58.1357 455.867 56.6844C459.228 55.2332 463.047 54.5076 467.324 54.5076C471.525 54.5076 475.191 55.195 478.323 56.5699C481.454 57.9447 483.898 59.9688 485.655 62.6421C487.412 65.3155 488.29 68.5616 488.29 72.3807V102.627C488.29 103.926 488.634 104.995 489.321 105.835C490.085 106.599 490.964 106.981 491.957 106.981C492.72 106.981 493.522 106.637 494.363 105.95C495.279 105.186 495.928 103.888 496.31 102.055H499.289C498.984 105.033 498.143 107.363 496.769 109.043C495.47 110.724 494.019 111.869 492.415 112.48C490.811 113.092 489.321 113.397 487.947 113.397C486.419 113.397 484.891 113.053 483.364 112.366C481.913 111.678 480.729 110.609 479.812 109.158C478.896 107.63 478.437 105.644 478.437 103.2V70.433ZM525.379 112.48V109.616C528.511 109.311 530.917 108.776 532.597 108.012C534.354 107.248 535.576 106.217 536.263 104.919C537.027 103.62 537.409 102.093 537.409 100.336V42.0194C537.409 40.1862 537.027 38.6204 536.263 37.322C535.5 36.0235 534.239 34.9924 532.482 34.2286C530.802 33.4647 528.434 32.9683 525.379 32.7391V29.8749H548.522V99.8777C548.522 102.093 548.981 103.888 549.897 105.263C550.89 106.561 552.532 107.554 554.824 108.241C557.115 108.852 560.247 109.311 564.219 109.616V112.48H525.379ZM547.033 74.6721V70.7767L563.989 70.0892C567.274 70.0129 570.176 69.5546 572.697 68.7144C575.294 67.8742 577.471 66.6903 579.227 65.1627C580.984 63.6351 582.321 61.8019 583.237 59.6633C584.23 57.4483 584.727 54.9659 584.727 52.2162C584.727 46.7168 582.894 42.4395 579.227 39.3842C575.638 36.2526 570.52 34.6105 563.875 34.4577L547.262 33.8848V29.8749H565.364C572.009 29.8749 577.623 30.7532 582.206 32.51C586.789 34.2667 590.303 36.7873 592.747 40.0717C595.191 43.2797 596.413 47.2514 596.413 51.987C596.413 55.5769 595.726 58.7849 594.351 61.611C592.976 64.4371 590.952 66.8431 588.278 68.829C585.682 70.7385 582.435 72.1897 578.54 73.1827C574.721 74.1756 570.367 74.6721 565.479 74.6721H547.033ZM597.528 112.48V109.616C601.195 109.158 603.639 108.432 604.861 107.439C606.159 106.37 606.809 104.728 606.809 102.513V40.1862C606.809 38.5059 606.427 37.322 605.663 36.6345C604.899 35.8707 603.601 35.4888 601.767 35.4888H597.757V32.6246L613.797 28.9583H616.662V67.5687C617.807 64.7426 619.373 62.3748 621.359 60.4653C623.421 58.5558 625.751 57.1045 628.348 56.1116C630.945 55.0423 633.618 54.5076 636.368 54.5076C640.11 54.5076 643.318 55.3096 645.992 56.9136C648.742 58.4412 650.842 60.6562 652.293 63.5587C653.821 66.4612 654.585 69.8601 654.585 73.7555V102.513C654.585 104.575 655.234 106.179 656.532 107.325C657.831 108.394 660.313 109.158 663.979 109.616V112.48H635.795V109.616C639.232 109.158 641.562 108.432 642.784 107.439C644.082 106.37 644.732 104.728 644.732 102.513V74.2138C644.732 70.1656 643.662 66.9958 641.524 64.7044C639.385 62.413 636.177 61.2673 631.9 61.2673C629.685 61.2673 627.393 61.9165 625.025 63.215C622.658 64.5135 620.672 66.3466 619.068 68.7144C617.464 71.0058 616.662 73.7937 616.662 77.0781V102.513C616.662 104.728 617.311 106.37 618.609 107.439C619.984 108.432 622.352 109.158 625.713 109.616V112.48H597.528ZM670.055 134.822C667.153 134.822 664.747 134.134 662.837 132.76C660.928 131.385 659.973 129.742 659.973 127.833C659.973 126.382 660.508 125.121 661.577 124.052C662.646 122.983 663.907 122.448 665.358 122.448C666.504 122.448 667.382 122.639 667.993 123.021C668.68 123.479 669.253 123.976 669.712 124.51C670.246 125.121 670.895 125.656 671.659 126.114C672.423 126.573 673.454 126.802 674.753 126.802C677.197 126.802 679.183 125.847 680.71 123.938C682.238 122.028 683.575 119.66 684.72 116.834L705.229 65.3918C706.069 63.3296 705.916 61.6874 704.77 60.4653C703.701 59.1668 701.677 58.4412 698.698 58.2884V55.4242H716.915V58.2884C715.387 58.4412 714.012 59.1668 712.79 60.4653C711.568 61.7638 710.461 63.5587 709.468 65.8501L688.157 117.751C687.317 119.813 686.363 121.837 685.293 123.823C684.224 125.885 682.964 127.718 681.512 129.322C680.061 131.003 678.381 132.339 676.471 133.332C674.562 134.325 672.423 134.822 670.055 134.822ZM687.126 114.314L666.274 65.8501C665.434 63.7878 664.289 62.0693 662.837 60.6944C661.386 59.2432 659.706 58.4412 657.796 58.2884V55.4242H684.033V58.2884C681.054 58.594 678.915 59.3196 677.617 60.4653C676.318 61.611 676.128 63.2914 677.044 65.5064L692.167 102.513L687.126 114.314ZM738.302 113.397C735.552 113.397 733.07 113.092 730.855 112.48C728.716 111.946 726.73 111.488 724.897 111.106C723.14 110.724 721.384 110.762 719.627 111.22L717.221 94.4928H720.085C721.766 99.3812 724.057 103.162 726.959 105.835C729.862 108.509 733.528 109.845 737.958 109.845C741.472 109.845 744.412 108.967 746.78 107.21C749.148 105.377 750.332 102.895 750.332 99.7631C750.332 97.2425 749.568 95.2566 748.04 93.8054C746.513 92.2778 744.489 91.0175 741.968 90.0246C739.524 89.0316 736.927 88.0769 734.177 87.1603C731.428 86.2437 728.831 85.1362 726.387 83.8377C723.942 82.5393 721.918 80.8589 720.314 78.7966C718.787 76.7344 718.023 74.0228 718.023 70.6621C718.023 67.7596 718.596 65.3155 719.741 63.3296C720.887 61.2673 722.415 59.5869 724.324 58.2884C726.234 56.99 728.334 56.0352 730.626 55.4242C732.993 54.8131 735.323 54.5076 737.614 54.5076C740.517 54.5076 742.961 54.8131 744.947 55.4242C747.009 55.9588 748.804 56.4553 750.332 56.9136C751.859 57.3719 753.387 57.4483 754.915 57.1427L755.946 72.0369H752.967C752.356 68.9817 751.287 66.423 749.759 64.3607C748.308 62.2984 746.513 60.7326 744.374 59.6633C742.236 58.594 739.906 58.0593 737.385 58.0593C734.483 58.0593 731.886 58.8613 729.595 60.4653C727.303 61.9929 726.157 64.2079 726.157 67.1104C726.157 69.5546 726.921 71.5023 728.449 72.9535C730.053 74.3284 732.077 75.5123 734.521 76.5052C737.042 77.4218 739.677 78.3383 742.426 79.2549C745.253 80.0951 747.888 81.1644 750.332 82.4629C752.852 83.7614 754.877 85.4799 756.404 87.6186C758.008 89.7572 758.81 92.5833 758.81 96.0968C758.81 99.6103 757.932 102.666 756.175 105.263C754.418 107.783 752.012 109.769 748.957 111.22C745.902 112.671 742.35 113.397 738.302 113.397ZM762.16 112.48V109.616C765.674 109.158 768.118 108.394 769.493 107.325C770.868 106.255 771.555 104.537 771.555 102.169V66.423C771.555 64.7426 771.135 63.5205 770.295 62.7567C769.455 61.9929 768.118 61.611 766.285 61.611H762.39V58.7467L778.429 55.0805H781.294V102.169C781.294 104.461 781.981 106.179 783.356 107.325C784.807 108.394 787.251 109.158 790.689 109.616V112.48H762.16ZM776.482 44.9982C774.725 44.9982 773.197 44.3872 771.899 43.1651C770.677 41.8666 770.066 40.339 770.066 38.5822C770.066 37.3602 770.333 36.2908 770.868 35.3743C771.479 34.3813 772.281 33.6175 773.274 33.0828C774.267 32.4718 775.336 32.1663 776.482 32.1663C778.238 32.1663 779.728 32.8155 780.95 34.114C782.248 35.3361 782.898 36.8255 782.898 38.5822C782.898 39.728 782.592 40.7973 781.981 41.7902C781.446 42.7832 780.721 43.5852 779.804 44.1962C778.888 44.7309 777.78 44.9982 776.482 44.9982ZM819.445 113.397C814.175 113.397 809.477 112.213 805.353 109.845C801.228 107.478 798.02 104.193 795.729 99.9922C793.437 95.7149 792.292 90.8266 792.292 85.3272C792.292 81.9664 792.75 78.7584 793.666 75.7032C794.583 72.648 795.882 69.8219 797.562 67.225C799.242 64.628 801.266 62.3748 803.634 60.4653C806.002 58.5558 808.713 57.1045 811.769 56.1116C814.824 55.0423 818.108 54.5076 821.622 54.5076C825.212 54.5076 828.611 55.1186 831.819 56.3407C835.027 57.4864 837.624 59.1668 839.609 61.3819C841.672 63.5969 842.703 66.3466 842.703 69.631C842.703 71.1586 842.206 72.457 841.213 73.5264C840.22 74.5957 838.96 75.1304 837.433 75.1304C836.058 75.1304 834.836 74.6339 833.766 73.6409C832.773 72.648 832.277 71.4641 832.277 70.0892C832.277 69.4018 832.353 68.829 832.506 68.3707C832.659 67.836 832.735 67.1486 832.735 66.3084C832.735 64.628 832.277 63.1768 831.36 61.9547C830.444 60.7326 829.145 59.7779 827.465 59.0904C825.785 58.403 823.799 58.0593 821.507 58.0593C818.987 58.0593 816.733 58.4794 814.748 59.3196C812.762 60.0834 811.005 61.2291 809.477 62.7567C807.95 64.2079 806.651 65.9265 805.582 67.9124C804.589 69.8983 803.863 72.0751 803.405 74.4429C802.947 76.8107 802.718 79.2931 802.718 81.89C802.718 87.1603 803.558 91.5904 805.238 95.1803C806.995 98.6938 809.401 101.367 812.456 103.2C815.588 105.033 819.139 105.95 823.111 105.95C827.618 105.95 831.322 104.766 834.225 102.398C837.203 99.9541 839.495 96.5169 841.099 92.0869H844.307C843.161 96.9752 841.366 101.023 838.922 104.231C836.554 107.363 833.728 109.693 830.444 111.22C827.159 112.671 823.493 113.397 819.445 113.397ZM866.469 113.397C863.567 113.397 860.817 112.824 858.22 111.678C855.699 110.533 853.637 108.852 852.033 106.637C850.506 104.422 849.742 101.787 849.742 98.732C849.742 95.9823 850.315 93.5763 851.46 91.514C852.682 89.4517 854.707 87.6186 857.533 86.0146C860.435 84.3342 864.445 82.6157 869.563 80.8589L879.072 77.7655C880.829 77.0781 882.051 76.1233 882.738 74.9012C883.502 73.6791 883.884 72.2279 883.884 70.5475L884.915 79.4841L873.114 83.6086C869.142 85.0598 865.973 86.7784 863.605 88.7643C861.237 90.6738 860.053 93.3471 860.053 96.7843C860.053 98.9993 860.55 100.871 861.543 102.398C862.536 103.926 863.796 105.072 865.323 105.835C866.927 106.523 868.608 106.866 870.365 106.866C872.427 106.866 874.489 106.294 876.551 105.148C878.69 103.926 880.447 102.207 881.822 99.9922C883.196 97.7772 883.884 95.1803 883.884 92.2014L884.915 97.5863C884.151 101.253 882.815 104.27 880.905 106.637C879.072 108.929 876.857 110.647 874.26 111.793C871.739 112.862 869.142 113.397 866.469 113.397ZM883.884 70.433C883.884 66.4612 882.738 63.4059 880.447 61.2673C878.232 59.1286 875.291 58.0593 871.625 58.0593C868.111 58.0593 865.4 58.8995 863.49 60.5799C861.657 62.1838 860.741 64.0552 860.741 66.1938C860.741 67.1104 860.817 67.8742 860.97 68.4852C861.122 69.0199 861.199 69.7073 861.199 70.5475C861.199 71.9988 860.664 73.1827 859.595 74.0992C858.526 74.9394 857.265 75.3595 855.814 75.3595C854.286 75.3595 853.026 74.863 852.033 73.8701C851.117 72.8771 850.658 71.6169 850.658 70.0892C850.658 67.3395 851.613 64.7808 853.523 62.413C855.432 60.0452 858.029 58.1357 861.313 56.6844C864.674 55.2332 868.493 54.5076 872.771 54.5076C876.971 54.5076 880.638 55.195 883.769 56.5699C886.901 57.9447 889.345 59.9688 891.102 62.6421C892.859 65.3155 893.737 68.5616 893.737 72.3807V102.627C893.737 103.926 894.081 104.995 894.768 105.835C895.532 106.599 896.41 106.981 897.403 106.981C898.167 106.981 898.969 106.637 899.809 105.95C900.726 105.186 901.375 103.888 901.757 102.055H904.736C904.43 105.033 903.59 107.363 902.215 109.043C900.917 110.724 899.466 111.869 897.862 112.48C896.258 113.092 894.768 113.397 893.393 113.397C891.866 113.397 890.338 113.053 888.81 112.366C887.359 111.678 886.175 110.609 885.259 109.158C884.342 107.63 883.884 105.644 883.884 103.2V70.433Z"></path><path d="M146.794 73.2871C146.794 72.808 146.787 72.329 146.774 71.8521C146.383 52.826 138.793 34.9954 125.296 21.4983C111.434 7.63416 93.001 0 73.397 0C53.7929 0 35.3602 7.63416 21.4983 21.4983C7.63416 35.3602 0 53.7929 0 73.397C0 93.001 7.63416 111.434 21.4983 125.296C35.3602 139.158 53.7929 146.794 73.397 146.794C93.001 146.794 111.434 139.16 125.296 125.296C139.158 111.434 146.794 93.001 146.794 73.397C146.794 73.3794 146.794 73.3596 146.794 73.342C146.794 73.3245 146.794 73.3047 146.794 73.2871ZM55.907 108.931C47.9058 100.93 42.9284 90.7134 41.5418 79.6665C41.3045 77.7788 42.7922 76.1175 44.6952 76.1175H76.6493C78.2117 76.1175 79.528 77.2558 79.7829 78.7963C80.4993 83.1386 82.0486 87.204 84.2593 90.8233C85.2328 92.4165 84.6109 94.4975 82.9364 95.3216C82.4969 95.5369 82.0596 95.7545 81.6245 95.9742C73.6892 99.9649 66.2726 104.426 59.4186 109.324C58.3748 110.069 56.942 109.964 56.0322 109.058C55.9905 109.016 55.9487 108.975 55.907 108.933V108.931ZM55.907 37.6434C56.6299 36.9204 57.7704 36.8259 58.5967 37.4259C65.6793 42.5549 73.3706 47.2136 81.6245 51.3647C81.9871 51.5471 82.3496 51.7273 82.7144 51.9075C84.3164 52.6986 84.8812 54.6851 83.9736 56.2256C81.7739 59.9614 80.273 64.1564 79.6533 68.6284C79.4423 70.1468 78.1568 71.283 76.6229 71.283H44.4689C42.6494 71.283 41.2364 69.703 41.4275 67.8944C42.634 56.4695 47.6663 45.8819 55.9048 37.6434H55.907ZM141.907 70.9138L141.874 71.283H87.9731C85.8964 71.283 84.356 69.3711 84.7823 67.3384C85.5119 63.8686 86.8633 60.625 88.718 57.7331C89.5751 56.397 91.2716 55.8806 92.7329 56.5003C107.59 62.8006 124.052 67.6241 141.907 70.9138ZM96.227 52.7206C95.1128 52.2613 94.9414 50.7626 95.9105 50.0462C100.712 46.4928 106.645 44.3898 113.062 44.3898C125.858 44.3898 136.736 52.7491 140.524 64.2949C140.749 64.9805 140.155 65.6595 139.448 65.5189C123.861 62.4468 109.403 58.166 96.227 52.7184V52.7206ZM141.757 76.1175L141.788 76.4471C123.445 79.8335 107.505 84.7933 92.333 91.3573C91.8012 91.6166 90.4717 91.265 89.797 90.4123C87.0589 86.6436 85.3273 82.8397 84.5318 77.8953C84.3823 76.9613 85.1119 76.1175 86.0568 76.1175H141.757ZM139.153 81.875C139.878 81.7321 140.483 82.4397 140.23 83.132C136.195 94.2316 125.54 102.182 113.062 102.182C106.953 102.182 101.281 100.275 96.6093 97.0268C95.6073 96.3302 95.7721 94.7986 96.9016 94.3371C109.812 89.0565 123.944 84.8878 139.153 81.8728V81.875ZM113.062 39.5553C104.063 39.5553 95.8775 43.0976 89.8234 48.8595C89.2301 49.5056 87.9885 49.0969 86.3513 48.3036C84.9669 47.6531 85.3537 47.8267 84.0022 47.1477C76.6251 43.4493 69.7117 39.3377 63.2994 34.8394C62.1347 34.0219 62.1655 32.2925 63.3433 31.4948C71.606 25.8933 81.3454 22.8783 91.5484 22.8783C105.013 22.8783 117.672 28.1216 127.192 37.6434C129.675 40.1266 131.866 42.823 133.75 45.6929C133.993 46.0643 133.534 46.4972 133.18 46.2313C127.559 42.0406 120.595 39.5553 113.06 39.5553H113.062ZM84.0044 100.189C85.536 99.4221 86.4964 98.9497 88.0676 98.2179C88.8565 97.9938 89.9245 98.0025 90.8255 98.4882C96.8247 103.962 104.323 107.019 113.064 107.019C120.907 107.019 128.13 104.327 133.866 99.8221C134.084 99.6507 134.376 99.91 134.229 100.145C132.297 103.202 130.023 106.072 127.423 108.704C117.587 118.664 103.984 124.096 89.9948 123.674C80.3389 123.382 71.1489 120.386 63.295 115.049C62.405 114.444 62.394 113.135 63.273 112.515C69.6942 108.01 76.6163 103.892 84.0044 100.187V100.189ZM121.879 24.9154C123.417 26.4537 124.869 28.0513 126.241 29.7038C126.416 29.917 126.137 30.2004 125.92 30.029C116.183 22.2608 104.191 18.0438 91.5506 18.0438C79.6159 18.0438 68.2614 21.8059 58.834 28.7655C57.7265 29.5829 56.208 29.5522 55.1378 28.6863C50.6703 25.067 46.4928 21.239 42.6208 17.2109C42.4582 17.0395 42.2956 16.8703 42.1329 16.7011C40.7287 15.22 41.166 12.8137 42.9944 11.9083C52.3294 7.28256 62.6753 4.83453 73.397 4.83453C91.7111 4.83453 108.929 11.9655 121.879 24.9154ZM24.9154 24.9154C27.2294 22.6014 29.6796 20.4742 32.2463 18.5404C33.9142 17.2834 36.2656 17.5032 37.6874 19.0327C38.0873 19.4612 38.4917 19.8919 38.9048 20.3226C43.0691 24.6759 47.04 28.271 51.8679 32.1606C52.0349 32.2947 52.6305 33.0572 52.6371 33.2967C52.6546 33.7912 52.4437 34.2658 52.0965 34.6196C42.9504 43.9459 37.5006 55.9531 36.4831 68.8547C36.3755 70.226 35.2415 71.2852 33.8659 71.2852H7.63197C6.11129 71.2852 4.90485 69.9952 5.01033 68.4767C6.17062 52.0174 13.1323 36.7007 24.9154 24.9176V24.9154ZM8.38352 76.1175H33.3517C35.0284 76.1175 36.4326 77.3855 36.604 79.0512C37.9005 91.6298 43.4251 103.285 52.4876 112.35C53.1447 113.007 53.0897 114.091 52.3668 114.675C47.5542 118.556 43.0603 122.672 38.907 127.016C38.4279 127.517 37.9599 128.014 37.5006 128.513C36.3798 129.721 34.5339 129.926 33.2 128.957C30.2839 126.838 27.5151 124.476 24.9176 121.881C13.4642 110.427 6.56617 95.6336 5.1246 79.695C4.951 77.7766 6.45849 76.1197 8.38352 76.1197V76.1175ZM121.879 121.879C108.929 134.828 91.7111 141.959 73.397 141.959C62.8621 141.959 52.692 139.599 43.4844 135.13C41.5748 134.202 41.1221 131.686 42.5922 130.154L42.6186 130.126C46.6181 125.964 50.945 122.015 55.5795 118.29C56.6739 117.411 58.2209 117.378 59.3615 118.198C68.6833 124.909 79.8379 128.53 91.5484 128.53C103.259 128.53 114.789 124.786 124.204 117.855C124.713 117.479 125.335 118.158 124.918 118.633C123.942 119.743 122.929 120.824 121.876 121.876L121.879 121.879Z"></path></g></svg>
