<svg width="351" height="72" viewBox="0 0 351 72" fill="none" xmlns="http://www.w3.org/2000/svg">
<g clip-path="url(#clip0_429_667)">
<path d="M23.61 33.42H20.99V45.89H23.61V33.42Z" fill="#E57200"/>
<path d="M9.38998 33.42H6.84998V45.89H9.38998V33.42Z" fill="#E57200"/>
<path d="M12.96 33.42H10.26V45.89H12.96V33.42Z" fill="#E57200"/>
<path d="M16.54 33.42H13.84V45.89H16.54V33.42Z" fill="#E57200"/>
<path d="M20.12 33.42H17.42V45.89H20.12V33.42Z" fill="#E57200"/>
<path d="M22.49 32.5399H7.91998L15.4 27.9399L22.49 32.5399Z" fill="#E57200"/>
<path d="M0 27.89V32.54H6.24L13.8 27.89H0Z" fill="#E57200"/>
<path d="M16.94 27.89H30.38V32.54H24.1L16.94 27.89Z" fill="#E57200"/>
<path d="M28.46 27.01H1.92999C4.52999 22.32 9.48999 19.16 15.19 19.16C20.89 19.16 25.86 22.33 28.46 27.01Z" fill="#E57200"/>
<path fill-rule="evenodd" clip-rule="evenodd" d="M2.04998 42.34L1.81998 43.04L2.40998 42.61L3.00998 43.04L2.77998 42.34L3.36998 41.91H2.62998L2.39998 41.21L2.16998 41.91H1.43998L2.03998 42.34H2.04998ZM-1.95317e-05 38.37L0.58998 38.8L0.35998 39.5L0.94998 39.07L1.53998 39.5L1.30998 38.8L1.89998 38.37H1.16998L0.93998 37.67L0.70998 38.37H-0.0200195H-1.95317e-05ZM5.97998 45.89H5.17998L4.95998 45.2L5.54998 44.77H4.80998L4.57998 44.07L4.34998 44.77H3.60998L4.20998 45.2L3.97998 45.89H-1.95317e-05V38.37V35.66L0.55998 35.26L1.14998 35.69L0.91998 34.99L1.50998 34.56H0.77998L0.54998 33.86L0.44998 34.18L0.30998 34.56H-1.95317e-05V33.42H5.97998V45.89ZM5.16998 45.89H3.98998L4.57998 45.46L5.16998 45.89ZM-1.95317e-05 35.57V34.85L0.16998 34.98L0.0399805 35.37L-0.0100195 35.58L-1.95317e-05 35.57Z" fill="#E57200"/>
<path d="M5.98 46.77H0V50.08H5.98V46.77Z" fill="#E57200"/>
<path d="M30.38 46.77H24.49V50.08H30.38V46.77Z" fill="#E57200"/>
<path fill-rule="evenodd" clip-rule="evenodd" d="M19.29 49.11L19.88 48.68H19.14L18.91 47.98L18.68 48.68H17.94L18.54 49.11L18.31 49.81L18.9 49.38L19.49 49.81L19.26 49.11H19.29ZM14.85 49.57L14.68 50.08H6.84998V46.77H7.81998L7.64998 47.29H6.91998L7.51998 47.72L7.28998 48.42L7.87998 47.99L8.46998 48.42L8.23998 47.72L8.82998 47.29H8.09998L7.92998 46.77H22.48L22.31 47.29H21.58L22.17 47.72L21.94 48.42L22.53 47.99L23.12 48.42L22.89 47.72L23.49 47.29H22.75L22.58 46.77H23.59V50.08H15.72L15.56 49.57L16.15 49.14H15.41L15.18 48.44L14.95 49.14H14.22L14.81 49.57H14.85ZM11.03 49.11L10.8 49.81L11.39 49.38L11.98 49.81L11.75 49.11L12.34 48.68H11.61L11.38 47.98L11.15 48.68H10.42L11.02 49.11H11.03ZM15.55 50.08H14.88L15.21 49.84L15.55 50.08Z" fill="#E57200"/>
<path fill-rule="evenodd" clip-rule="evenodd" d="M28.38 42.34L28.98 41.91H28.25L28.02 41.21L27.79 41.91H27.06L27.65 42.34L27.42 43.04L28.02 42.61L28.61 43.04L28.38 42.34ZM26.43 45.89L26.2 45.2L26.8 44.77H26.07L25.84 44.07L25.61 44.77H24.87L25.46 45.2L25.23 45.89L25.82 45.46L26.41 45.89H26.43ZM30.38 45.89H24.49V33.42H30.38V34.56H30.09L29.86 33.86L29.63 34.56H28.9L29.49 34.99L29.26 35.69L29.85 35.26L30.37 35.64V38.38H29.68L29.45 37.68L29.22 38.38H28.49L29.08 38.81L28.85 39.51L29.44 39.08L30.03 39.51L29.8 38.81L30.35 38.41V45.9L30.38 45.89ZM30.38 34.88V35.45L30.23 34.99L30.38 34.88Z" fill="#E57200"/>
<path fill-rule="evenodd" clip-rule="evenodd" d="M42.42 36.08C44.56 36.08 46.06 35.51 47.04 34.6C48.42 33.42 48.96 31.87 49.11 29.85C49.18 28.89 49.23 24.59 49.23 24.24C49.23 23.89 49.23 20.4 49.28 20.16C49.35 19.87 49.43 19.18 50.34 19.18H51.35C51.47 19.18 51.5 19.08 51.5 18.93V18.39C51.5 18.32 51.48 18.22 51.25 18.22C51.03 18.22 50.24 18.29 48.55 18.29C46.86 18.29 45.77 18.22 45.52 18.22C45.37 18.22 45.35 18.27 45.35 18.39V18.98C45.35 19.1 45.37 19.18 45.52 19.18H46.6C47.24 19.18 47.63 19.62 47.71 20.26C47.78 20.87 47.83 22.3 47.83 24.17V29.43C47.83 31.25 47.51 32.73 46.55 33.76C45.69 34.65 44.26 35.11 42.86 35.11C41.46 35.11 39.86 34.67 38.95 33.34C38.38 32.5 38.19 31.35 38.16 30.22C38.14 29.43 38.04 26.31 38.04 25.01V23.39C38.04 22.14 38.07 20.41 38.09 20.19C38.14 19.65 38.56 19.18 39.27 19.18H40.5C40.67 19.18 40.7 19.13 40.7 19.01V18.37C40.7 18.27 40.68 18.22 40.48 18.22C40.21 18.22 39.03 18.29 37.11 18.29C35.19 18.29 33.99 18.22 33.74 18.22C33.54 18.22 33.52 18.27 33.52 18.42V18.96C33.52 19.13 33.54 19.18 33.69 19.18H34.85C35.61 19.18 35.78 19.57 35.78 20.43V26.28C35.78 29.5 35.88 31.15 36.17 32.26C36.56 33.81 37.42 34.89 39.1 35.56C39.91 35.9 41.14 36.08 42.42 36.08Z" fill="#232D4B"/>
<path fill-rule="evenodd" clip-rule="evenodd" d="M62.62 27.59C62.62 26.49 62.57 24.81 62.7 23.58C62.75 23.21 62.89 23.0201 63.56 23.0201H63.83C63.94 23.0201 63.99 22.94 63.99 22.83V22.2701C63.99 22.1101 63.94 22.06 63.8 22.06C63.61 22.06 62.68 22.14 62.12 22.14C61.26 22.14 60.11 22.06 59.93 22.06C59.8 22.06 59.74 22.1101 59.74 22.1901V22.83C59.74 22.96 59.79 23.0201 59.93 23.0201H60.39C60.84 23.0201 61.24 23.18 61.38 23.5C61.51 23.82 61.59 25.37 61.59 26.01C61.64 26.87 61.67 27.69 61.67 29.22V30.98H61.56C61.24 30.63 58.75 27.5101 58.27 26.9401C57.71 26.2701 54.63 22.4001 54.55 22.2901C54.44 22.1301 54.28 22.08 53.91 22.08C53.59 22.08 53.03 22.13 52.6 22.13C52.31 22.13 51.88 22.1 51.53 22.08C51.18 22.08 50.89 22.05 50.84 22.05C50.73 22.05 50.68 22.13 50.68 22.21V22.85C50.68 22.96 50.73 23.01 50.84 23.01H51.08C51.83 23.01 52.5 23.46 52.5 24.43V27.24C52.5 30.26 52.45 32.16 52.42 32.48C52.34 33.09 51.91 33.28 51.64 33.28H51.03C50.95 33.28 50.92 33.3101 50.92 33.3601V34.05C50.92 34.18 50.95 34.2401 51 34.2401C51.21 34.2401 52.42 34.16 52.79 34.16C53.56 34.16 54.63 34.2401 54.82 34.2401C54.95 34.2401 54.95 34.1901 54.95 34.0801V33.44C54.95 33.33 54.95 33.28 54.82 33.28H54.26C53.99 33.28 53.7 32.98 53.62 32.37C53.57 32.13 53.46 29.4601 53.46 27.85V24.1901H53.51C53.94 24.6701 56.1 27.56 56.74 28.31C57.03 28.66 58.18 30.02 59.41 31.49C60.51 32.8 61.41 33.8901 61.6 34.0801C61.71 34.1601 61.97 34.35 62.21 34.35C62.53 34.35 62.61 34.08 62.61 33.84V27.59H62.62Z" fill="#232D4B"/>
<path fill-rule="evenodd" clip-rule="evenodd" d="M68.96 27.3299C68.96 27.1399 68.99 23.9599 68.99 23.6999C69.02 23.1399 69.26 23.0299 69.98 23.0299H70.44C70.57 23.0299 70.6 22.9499 70.6 22.8399V22.1999C70.6 22.1199 70.55 22.0699 70.44 22.0699C70.23 22.0699 68.86 22.1499 68.09 22.1499C66.83 22.1799 65.18 22.0699 65.02 22.0699C64.91 22.0699 64.86 22.1199 64.86 22.2299V22.8499C64.86 22.9599 64.89 23.0399 65.02 23.0399H65.5C66.62 23.0399 66.86 23.3099 66.86 23.5999C66.86 23.9699 66.91 26.6499 66.91 27.0699V28.2499C66.91 29.1599 66.88 32.5499 66.86 32.7899C66.81 33.2699 66.38 33.2999 65.71 33.2999H65.12C65.01 33.2999 64.96 33.3799 64.96 33.4599V34.0499C64.96 34.1799 65.01 34.2599 65.12 34.2599C65.28 34.2599 66.83 34.1799 67.74 34.1799C68.94 34.1799 70.33 34.2599 70.55 34.2599C70.68 34.2599 70.71 34.1799 70.71 34.0699V33.4299C70.71 33.3499 70.68 33.2999 70.55 33.2999H70.15C69.38 33.2999 69.05 32.9299 69 32.3099C68.97 31.9099 68.97 28.8399 68.97 28.6699V27.3299H68.96Z" fill="#232D4B"/>
<path fill-rule="evenodd" clip-rule="evenodd" d="M96.06 28.0799C96.03 29.7099 96.06 31.2899 96.03 32.5999C96.03 33.1899 95.71 33.2899 95.07 33.2899H94.75C94.64 33.2899 94.59 33.3399 94.59 33.4199V34.0299C94.59 34.1599 94.64 34.2399 94.75 34.2399C94.94 34.2399 96.3 34.1599 96.97 34.1599C97.85 34.1599 99.3 34.2399 99.48 34.2399C99.64 34.2399 99.69 34.1899 99.69 34.0499V33.4099C99.69 33.3299 99.64 33.2799 99.53 33.2799H98.84C98.31 33.2799 98.15 32.9899 98.09 32.6099V29.0799C98.28 29.0299 98.52 29.0299 98.78 29.0299C99.9 29.0299 100.3 29.6199 101.27 31.2699C101.51 31.6699 102.69 33.8399 103.19 34.2099C103.64 34.1799 104.28 34.1599 104.9 34.1599C105.17 34.1599 105.49 34.1899 105.73 34.1899C106 34.2199 106.21 34.2399 106.26 34.2399C106.37 34.2399 106.42 34.1599 106.42 34.0499V33.5199C106.42 33.3599 106.39 33.2799 106.29 33.2799C105.81 33.2799 105.46 33.2499 105.09 32.9899C104.58 32.6099 103.97 31.8099 103.59 31.2799C102.49 29.7299 101.96 28.8999 101.35 28.7699V28.7199C103.46 27.9699 104.5 26.8999 104.5 25.0599C104.5 24.4499 104.15 23.6699 103.56 23.1099C102.89 22.5199 101.69 22.0699 100.09 22.0699C99.74 22.0699 97.42 22.1499 97.1 22.1499C96.62 22.1499 94.96 22.0699 94.83 22.0699C94.72 22.0699 94.67 22.1199 94.67 22.2099V22.8499C94.67 22.9599 94.7 23.0399 94.78 23.0399H95.05C95.8 23.0399 96.04 23.3299 96.06 23.8699V28.0899V28.0799ZM98.09 23.5099C98.09 23.0299 98.49 22.9199 98.89 22.9199C99.96 22.9199 100.71 23.1599 101.43 23.6099C101.91 23.9299 102.31 24.6499 102.31 25.4499C102.31 26.1399 101.85 28.2299 98.89 28.2299C98.54 28.2299 98.27 28.1999 98.09 28.1799V23.4999V23.5099Z" fill="#232D4B"/>
<path fill-rule="evenodd" clip-rule="evenodd" d="M110.95 34.49C113.38 34.49 114.66 32.78 114.66 30.77C114.66 29.43 114.34 28.77 113.81 28.21C113.14 27.52 112.15 27.22 110.92 26.77C110.41 26.58 109.45 26.18 109.05 25.67C108.76 25.32 108.62 24.76 108.62 24.36C108.62 23.88 109.05 22.73 110.52 22.73C111.3 22.73 111.88 23 112.28 23.45C112.84 24.09 113.06 25.03 113.21 25.35C113.24 25.43 113.29 25.48 113.37 25.46L113.85 25.35C113.93 25.32 113.96 25.27 113.96 25.19C113.93 24.81 113.69 23.08 113.69 22.2C113.69 22.07 113.66 21.96 113.45 21.96C113.24 21.96 113.16 21.96 113.1 22.04L112.99 22.23C112.94 22.36 112.8 22.34 112.53 22.18C112.21 22.02 111.65 21.83 110.63 21.83C109.67 21.83 108.81 22.07 108.12 22.63C107.53 23.14 106.97 23.97 106.97 24.87C106.97 26.18 107.29 27.04 107.91 27.62C108.71 28.34 109.99 28.82 110.53 29.01C111.95 29.54 112.99 30.21 112.99 31.74C112.99 32.89 111.71 33.56 110.85 33.56C109.86 33.56 108.98 33.03 108.58 32.22C108.1 31.34 108.1 30.78 108.1 30.4C108.1 30.29 107.99 30.24 107.89 30.21L107.41 30.16C107.3 30.16 107.25 30.24 107.22 30.35C107.19 30.78 107.01 32.91 106.93 33.66C106.9 33.79 106.98 33.9 107.14 33.95C107.35 34 107.49 33.95 107.54 33.82L107.62 33.61C107.67 33.4 107.83 33.42 108.02 33.56C108.64 34.04 109.57 34.5 110.93 34.5" fill="#232D4B"/>
<path fill-rule="evenodd" clip-rule="evenodd" d="M119.19 27.3299C119.19 27.1399 119.22 23.9599 119.22 23.6999C119.25 23.1399 119.49 23.0299 120.21 23.0299H120.67C120.8 23.0299 120.83 22.9499 120.83 22.8399V22.1999C120.83 22.1199 120.78 22.0699 120.67 22.0699C120.46 22.0699 119.09 22.1499 118.32 22.1499C117.06 22.1799 115.41 22.0699 115.25 22.0699C115.14 22.0699 115.09 22.1199 115.09 22.2299V22.8499C115.09 22.9599 115.12 23.0399 115.25 23.0399H115.73C116.85 23.0399 117.09 23.3099 117.09 23.5999C117.09 23.9699 117.14 26.6499 117.14 27.0699V28.2499C117.14 29.1599 117.11 32.5499 117.09 32.7899C117.04 33.2699 116.61 33.2999 115.94 33.2999H115.35C115.24 33.2999 115.19 33.3799 115.19 33.4599V34.0499C115.19 34.1799 115.24 34.2599 115.35 34.2599C115.51 34.2599 117.06 34.1799 117.97 34.1799C119.17 34.1799 120.56 34.2599 120.78 34.2599C120.91 34.2599 120.94 34.1799 120.94 34.0699V33.4299C120.94 33.3499 120.91 33.2999 120.78 33.2999H120.38C119.6 33.2999 119.28 32.9299 119.23 32.3099C119.2 31.9099 119.2 28.8399 119.2 28.6699V27.3299H119.19Z" fill="#232D4B"/>
<path fill-rule="evenodd" clip-rule="evenodd" d="M47.54 42.73C49.99 42.73 51.46 39.36 51.46 37.5C51.46 36.35 50.78 35.52 49.65 35.52C47.4 35.52 45.79 38.41 45.79 40.54C45.79 41.82 46.6 42.72 47.53 42.72M47.28 41.92C46.87 41.92 46.5 41.6 46.5 41.06C46.5 40.26 46.91 39.23 47.48 38.32C48.33 36.95 49.22 36.31 49.93 36.31C50.49 36.31 50.79 36.73 50.78 37.26C50.78 38.38 49.04 41.93 47.28 41.93" fill="#232D4B"/>
<path fill-rule="evenodd" clip-rule="evenodd" d="M75.4 43.16C75.4 42.97 75.43 39.79 75.43 39.52C75.46 38.96 75.7 38.85 76.42 38.85H76.87C77 38.85 77.03 38.77 77.03 38.66V38.02C77.03 37.94 76.98 37.89 76.87 37.89C76.66 37.89 75.29 37.97 74.52 37.97C73.26 38 71.61 37.89 71.45 37.89C71.34 37.89 71.29 37.94 71.29 38.05V38.67C71.29 38.78 71.32 38.86 71.45 38.86H71.93C73.05 38.86 73.29 39.13 73.29 39.42C73.29 39.79 73.34 42.47 73.34 42.89V44.07C73.34 44.98 73.31 48.37 73.29 48.61C73.24 49.09 72.81 49.12 72.14 49.12H71.55C71.44 49.12 71.39 49.2 71.39 49.28V49.87C71.39 50 71.44 50.08 71.55 50.08C71.71 50.08 73.26 50 74.17 50C75.37 50 76.76 50.08 76.98 50.08C77.11 50.08 77.14 50 77.14 49.89V49.25C77.14 49.17 77.11 49.12 76.98 49.12H76.58C75.81 49.12 75.48 48.75 75.43 48.13C75.4 47.73 75.4 44.66 75.4 44.5V43.16Z" fill="#232D4B"/>
<path fill-rule="evenodd" clip-rule="evenodd" d="M79.28 43.91C79.25 45.54 79.28 47.12 79.25 48.43C79.25 49.02 78.93 49.12 78.29 49.12H77.97C77.86 49.12 77.81 49.17 77.81 49.25V49.86C77.81 49.99 77.86 50.07 77.97 50.07C78.16 50.07 79.52 49.99 80.19 49.99C81.07 49.99 82.52 50.07 82.7 50.07C82.86 50.07 82.91 50.02 82.91 49.88V49.24C82.91 49.16 82.85 49.11 82.75 49.11H82.06C81.52 49.11 81.37 48.82 81.31 48.44V44.91C81.5 44.86 81.74 44.86 82 44.86C83.12 44.86 83.52 45.45 84.49 47.1C84.73 47.5 85.91 49.67 86.42 50.04C86.87 50.01 87.52 49.99 88.13 49.99C88.4 49.99 88.72 50.02 88.96 50.02C89.23 50.05 89.44 50.07 89.49 50.07C89.6 50.07 89.65 49.99 89.65 49.88V49.35C89.65 49.19 89.62 49.11 89.52 49.11C89.04 49.11 88.69 49.08 88.32 48.82C87.81 48.45 87.2 47.64 86.82 47.11C85.72 45.56 85.19 44.73 84.58 44.6V44.55C86.69 43.8 87.73 42.73 87.73 40.89C87.73 40.28 87.38 39.5 86.79 38.94C86.12 38.35 84.92 37.9 83.32 37.9C82.97 37.9 80.65 37.98 80.33 37.98C79.85 37.98 78.19 37.9 78.06 37.9C77.95 37.9 77.9 37.95 77.9 38.03V38.67C77.9 38.78 77.93 38.86 78.01 38.86H78.28C79.03 38.86 79.27 39.15 79.29 39.69V43.91H79.28ZM81.47 39.34C81.47 38.86 81.87 38.75 82.27 38.75C83.34 38.75 84.09 38.99 84.81 39.44C85.29 39.76 85.69 40.48 85.69 41.28C85.69 41.97 85.24 44.06 82.27 44.06C81.92 44.06 81.65 44.03 81.47 44.01V39.33V39.34Z" fill="#232D4B"/>
<path fill-rule="evenodd" clip-rule="evenodd" d="M99.66 46.37C99.66 45.92 100.17 45.81 100.44 45.81H100.89C100.97 45.81 101.02 45.73 101.02 45.65V45.01C101.02 44.93 100.97 44.88 100.86 44.88C100.75 44.88 99.55 44.93 98.56 44.93C97.12 44.93 95.81 44.88 95.65 44.88C95.54 44.88 95.52 44.93 95.52 45.01V45.65C95.52 45.73 95.55 45.78 95.65 45.78H96.29C96.99 45.78 97.6 45.97 97.6 46.58V47.57C97.6 48.1 97.55 48.45 97.2 48.72C96.77 49.07 95.92 49.31 94.98 49.31C94.23 49.31 93.16 48.91 92.41 48.11C91.37 47.02 90.78 45.49 90.78 43.43C90.78 42.23 91.37 40.81 92.17 39.93C93.16 38.86 94.2 38.57 95.03 38.57C96.26 38.57 97.01 39.1 97.73 39.85C98.37 40.49 98.83 41.32 99.01 41.75C99.09 41.96 99.14 41.99 99.22 41.96L99.73 41.8C99.81 41.77 99.84 41.72 99.84 41.59C99.79 41.11 99.44 38.62 99.44 38.49C99.44 38.3 99.39 38.2 99.15 38.2C98.94 38.2 98.86 38.28 98.8 38.39L98.67 38.63C98.62 38.71 98.51 38.71 98.3 38.52C97.79 38.15 96.54 37.66 95.25 37.66C93.35 37.66 91.72 38.22 90.47 39.29C89.19 40.41 88.49 42.04 88.49 43.67C88.49 45.75 89.02 47.2 90.09 48.37C91.34 49.76 93.48 50.32 94.87 50.32C96.58 50.32 98.02 49.95 99.44 49.25C99.63 49.17 99.73 49.09 99.73 48.96C99.73 48.83 99.65 48.67 99.65 48.43V46.37H99.66Z" fill="#232D4B"/>
<path fill-rule="evenodd" clip-rule="evenodd" d="M104.56 43.16C104.56 42.97 104.59 39.79 104.59 39.52C104.62 38.96 104.86 38.85 105.58 38.85H106.04C106.17 38.85 106.2 38.77 106.2 38.66V38.02C106.2 37.94 106.15 37.89 106.04 37.89C105.83 37.89 104.46 37.97 103.69 37.97C102.43 38 100.78 37.89 100.62 37.89C100.51 37.89 100.46 37.94 100.46 38.05V38.67C100.46 38.78 100.49 38.86 100.62 38.86H101.1C102.22 38.86 102.46 39.13 102.46 39.42C102.46 39.79 102.51 42.47 102.51 42.89V44.07C102.51 44.98 102.48 48.37 102.46 48.61C102.4 49.09 101.98 49.12 101.31 49.12H100.72C100.61 49.12 100.56 49.2 100.56 49.28V49.87C100.56 50 100.61 50.08 100.72 50.08C100.88 50.08 102.43 50 103.34 50C104.54 50 105.93 50.08 106.14 50.08C106.27 50.08 106.3 50 106.3 49.89V49.25C106.3 49.17 106.27 49.12 106.14 49.12H105.74C104.96 49.12 104.64 48.75 104.59 48.13C104.56 47.73 104.56 44.66 104.56 44.5V43.16Z" fill="#232D4B"/>
<path fill-rule="evenodd" clip-rule="evenodd" d="M119.01 43.43C119.01 42.33 118.96 40.65 119.09 39.42C119.14 39.05 119.28 38.86 119.94 38.86H120.21C120.32 38.86 120.37 38.78 120.37 38.67V38.11C120.37 37.95 120.31 37.9 120.18 37.9C119.99 37.9 119.06 37.98 118.5 37.98C117.65 37.98 116.5 37.9 116.31 37.9C116.18 37.9 116.12 37.95 116.12 38.03V38.67C116.12 38.8 116.17 38.86 116.31 38.86H116.76C117.22 38.86 117.62 39.02 117.75 39.34C117.88 39.66 117.96 41.21 117.96 41.85C118.01 42.71 118.04 43.53 118.04 45.06V46.82H117.93C117.61 46.47 115.12 43.35 114.64 42.78C114.08 42.11 111.01 38.24 110.93 38.13C110.82 37.97 110.66 37.92 110.29 37.92C109.97 37.92 109.41 37.97 108.98 37.97C108.69 37.97 108.26 37.94 107.91 37.92C107.56 37.92 107.27 37.89 107.22 37.89C107.11 37.89 107.06 37.97 107.06 38.05V38.69C107.06 38.8 107.11 38.85 107.22 38.85H107.46C108.21 38.85 108.88 39.3 108.88 40.27V43.08C108.88 46.1 108.83 48 108.8 48.32C108.72 48.93 108.29 49.12 108.03 49.12H107.41C107.33 49.12 107.3 49.15 107.3 49.2V49.9C107.3 50.03 107.33 50.09 107.38 50.09C107.59 50.09 108.8 50.01 109.17 50.01C109.95 50.01 111.01 50.09 111.2 50.09C111.33 50.09 111.33 50.04 111.33 49.93V49.29C111.33 49.18 111.33 49.13 111.2 49.13H110.64C110.37 49.13 110.08 48.84 110 48.22C109.95 47.98 109.84 45.31 109.84 43.7V40.04H109.89C110.32 40.52 112.48 43.41 113.12 44.15C113.41 44.5 114.56 45.86 115.79 47.33C116.89 48.64 117.79 49.74 117.98 49.92C118.09 50 118.35 50.19 118.59 50.19C118.91 50.19 118.99 49.92 118.99 49.68V43.43H119.01Z" fill="#232D4B"/>
<path d="M53.35 36.44H51.84C51.76 36.44 51.71 36.36 51.75 36.24L51.82 35.95C51.85 35.83 51.97 35.56 52.11 35.56H53.58C54.09 34.11 54.58 32.92 55.48 31.92C55.95 31.38 56.88 30.77 57.98 30.77C58.96 30.77 59.5 31.36 59.5 31.77C59.5 32.29 59.16 32.55 58.82 32.55C58.28 32.55 58.13 32.24 58.08 31.87C58.06 31.7 57.89 31.38 57.39 31.38C55.82 31.38 55.48 33.61 54.92 35.51C54.92 35.51 57.27 35.57 59.19 35.57C61.26 35.57 62.36 35.5 62.59 35.5C62.82 35.5 62.84 35.57 62.84 35.67V36.24C62.84 36.36 62.82 36.46 62.64 36.46H61.46C60.77 36.46 60.43 36.68 60.43 37.1C60.43 37.3 60.45 37.59 60.53 37.94C60.68 38.83 61.59 41.75 62.03 43.13C62.33 44.06 63.75 48.3 64.32 49.8C64.89 48.64 66.8 43.58 67 43.01C67.25 42.34 68.18 39.52 68.55 38.44C68.75 37.82 68.9 37.38 68.9 37.04C68.9 36.74 68.73 36.47 68.11 36.47H67.47C67.37 36.47 67.35 36.4 67.35 36.25V35.68C67.35 35.56 67.37 35.51 67.5 35.51C67.72 35.51 68.85 35.58 70.4 35.58C72.19 35.58 72.81 35.51 73.03 35.51C73.18 35.51 73.2 35.56 73.2 35.68V36.29C73.2 36.39 73.17 36.46 73.03 36.46H72.37C71.56 36.46 71.09 36.85 70.62 37.42C69.98 38.21 68.01 43.25 67.59 44.28C67.29 45.09 64.12 52.91 64 53.16C63.9 53.36 63.78 53.48 63.66 53.48C63.46 53.48 63.36 53.23 63.24 52.91C62.45 50.65 60.46 45.04 60.14 44.15L59.89 43.31C59.3 41.56 58.14 38 57.82 37.26C57.57 36.7 57.33 36.45 56.81 36.45L54.52 36.43C54.08 37.8 53.3 40.69 52.46 42.86C51.43 45.5 50.23 47.38 48.42 47.38C47.74 47.38 47.2 46.92 47.2 46.38C47.2 45.99 47.49 45.65 47.93 45.65C48.42 45.65 48.67 46.12 48.73 46.41C48.76 46.58 48.88 46.7 49.02 46.7C49.83 46.7 50.74 45.28 51.66 42.15L53.38 36.43L53.35 36.44Z" fill="#232D4B"/>
<path d="M122.14 22.02C122.14 22.02 122.16 22 122.24 22.01C122.66 22.06 124.17 22.2 127.11 22.2H128.18C129.05 22.2 129.99 22.16 131.01 22.12C131.52 22.11 134.66 22.14 135.3 22.14C135.89 22.14 137.71 22.06 137.89 22.06C138 22.06 138.08 22.11 138.08 22.25V22.84C138.08 22.95 138.05 23.03 137.89 23.03H137.49C137.01 23.03 136.98 23.32 137.09 23.48C137.25 23.72 139.47 27.27 139.9 27.92C140.3 27.25 142.52 24.02 142.63 23.8C142.84 23.37 142.87 23.02 142.28 23.02H141.85C141.72 23.02 141.66 22.94 141.66 22.83V22.24C141.66 22.13 141.71 22.05 141.85 22.05C142.01 22.05 143.35 22.13 144.15 22.13C144.63 22.13 145.57 22.05 145.73 22.05C145.86 22.05 145.92 22.1 145.92 22.26V22.82C145.92 22.95 145.87 23.01 145.76 23.01H145.49C145.06 23.01 144.77 23.09 144.53 23.22C144.13 23.43 141.03 27.79 140.41 28.73V30.97C140.44 31.64 140.41 32.36 140.46 32.68C140.51 33.24 140.94 33.27 141.42 33.27H141.77C141.9 33.27 141.96 33.32 141.96 33.4V34.04C141.96 34.15 141.91 34.23 141.74 34.23C141.57 34.23 140.08 34.15 139.2 34.15C138.61 34.15 137.06 34.23 136.9 34.23C136.77 34.23 136.71 34.18 136.71 34.02V33.43C136.71 33.35 136.76 33.27 136.87 33.27H137.27C138.13 33.27 138.29 33.11 138.31 32.74C138.34 32.5 138.34 31.54 138.34 29.96V29C138.1 28.52 134.84 23.74 134.41 23.34C134.18 23.11 133.8 23.04 133.56 23.02C133.72 23.74 133.93 24.69 134.02 25.15C134.05 25.26 133.99 25.31 133.89 25.36L133.43 25.49C133.27 25.54 133.19 25.52 133.14 25.38C132.82 24.71 132.36 23.83 131.8 23.32C131.13 23.08 129.18 23.05 128.7 23.05V27.54C128.7 30.35 128.7 32.35 128.73 32.56C128.78 32.99 128.92 33.25 129.35 33.25H130.36C130.49 33.25 130.55 33.33 130.55 33.49V34.05C130.55 34.13 130.5 34.21 130.36 34.21C130.17 34.21 128.52 34.13 127.63 34.13C126.88 34.13 125.14 34.21 124.93 34.21C124.77 34.21 124.72 34.13 124.72 33.97V33.44C124.72 33.31 124.77 33.25 124.88 33.25H125.95C126.35 33.25 126.54 33.04 126.56 32.82C126.64 31.8 126.64 30.39 126.64 28.78V23.04C126.13 23.04 124.63 23.01 123.64 23.28C122.97 23.79 122.41 24.64 122.06 25.34C122.01 25.45 121.93 25.53 121.82 25.47L121.34 25.28C121.21 25.23 121.21 25.12 121.23 25.01C121.38 24.52 121.85 22.88 122.07 22.07C122.08 22.03 122.08 22 122.12 21.98" fill="#232D4B"/>
<path d="M130.9 44.53H134.53C134.42 44.16 133.17 40.15 133.11 39.93C133.06 39.77 133.03 39.66 132.95 39.66C132.87 39.66 132.82 39.74 132.74 39.95C132.66 40.16 131.03 44.25 130.9 44.52M125.35 43.16V44.5C125.35 44.66 125.35 47.73 125.38 48.13C125.43 48.75 125.75 49.12 126.53 49.12H126.84C127.29 49.12 127.72 48.85 127.94 48.56C128.13 48.35 129.49 45.14 130.13 43.8C130.32 43.42 131.89 39.79 132.05 39.34C132.1 39.18 132.26 38.89 132.08 38.81C132.03 38.76 131.95 38.62 131.97 38.54C131.94 38.49 132 38.41 132.24 38.35C132.75 38.27 133.5 37.79 133.74 37.57C133.79 37.46 133.9 37.38 134.06 37.38C134.22 37.38 134.27 37.49 134.33 37.67C134.7 38.74 136.07 42.56 136.41 43.63C136.81 44.97 137.96 48.12 138.15 48.39C138.5 48.87 138.95 49.11 139.41 49.11H139.92C140.03 49.11 140.06 49.19 140.06 49.27V49.83C140.06 49.91 140.03 50.07 139.87 50.07C139.55 50.07 138.13 49.99 137.52 49.99C137.01 49.99 135.43 50.07 135.09 50.07C134.9 50.07 134.88 49.94 134.88 49.83V49.27C134.88 49.19 134.91 49.11 135.01 49.11H135.44C135.76 49.11 135.87 48.87 135.87 48.66C135.76 48.13 135.04 45.99 134.83 45.37H130.53C130.42 45.69 129.57 47.91 129.46 48.23C129.3 48.76 129.38 49.11 129.94 49.11H130.61C130.77 49.11 130.8 49.19 130.8 49.3V49.89C130.8 50 130.77 50.08 130.64 50.08C130.43 50.08 129.01 50 128.58 50H124.16C123.25 50 121.7 50.08 121.54 50.08C121.43 50.08 121.38 50 121.38 49.87V49.28C121.38 49.2 121.43 49.12 121.54 49.12H122.13C122.8 49.12 123.23 49.09 123.28 48.61C123.31 48.37 123.33 44.97 123.33 44.07V42.89C123.33 42.46 123.28 39.79 123.28 39.42C123.28 39.13 123.04 38.86 121.92 38.86H121.44C121.31 38.86 121.28 38.78 121.28 38.67V38.05C121.28 37.94 121.33 37.89 121.44 37.89C121.6 37.89 123.26 38 124.51 37.97C125.29 37.97 126.65 37.89 126.86 37.89C126.97 37.89 127.02 37.94 127.02 38.02V38.66C127.02 38.77 126.99 38.85 126.86 38.85H126.4C125.68 38.85 125.44 38.96 125.41 39.52C125.41 39.79 125.38 42.97 125.38 43.16" fill="#232D4B"/>
<path d="M76.56 22.25V22.87C76.56 22.98 76.48 23.03 76.37 23.03H75.75C75.4 23.03 75 23.08 75 23.43C75 24.05 75.45 25.09 76.18 27.33C76.39 28 77.38 31.1 77.54 31.53H77.62C77.78 30.97 79.09 27.65 79.22 27.25C80.23 24.28 80.58 23.56 80.58 23.29C80.58 23.16 80.47 23.02 80.02 23.02H79.73C79.62 23.02 79.57 22.97 79.57 22.83V22.21C79.57 22.13 79.62 22.05 79.73 22.05C79.89 22.05 81.28 22.13 81.9 22.13H85.98L91.97 22.1C92.24 22.1 92.58 22.05 92.69 22.05C92.75 22.05 92.8 22.1 92.85 22.42C92.9 22.66 93.65 24.96 93.71 25.15C93.74 25.26 93.74 25.31 93.68 25.34L93.25 25.53C93.2 25.56 93.09 25.56 93.01 25.42C92.96 25.34 91.67 23.84 91.22 23.41C90.9 23.12 90.47 23.01 90.21 23.01L87.38 22.96V27.5C87.54 27.5 89.12 27.42 89.33 27.37C90.02 27.18 90.29 26.81 90.29 25.98C90.29 25.87 90.32 25.85 90.42 25.85L91.01 25.88C91.12 25.88 91.2 25.93 91.17 26.04C91.12 26.28 91.12 27.7 91.12 27.94C91.12 28.53 91.2 29.36 91.23 29.7C91.23 29.81 91.18 29.83 91.1 29.83L90.54 29.88C90.46 29.88 90.41 29.88 90.38 29.77C90.25 29.1 90.09 28.67 89.39 28.51C88.59 28.32 87.65 28.32 87.39 28.32V29.23C87.39 30.17 87.44 31.72 87.44 32.06C87.44 33.32 88.22 33.4 89.36 33.4C90.5 33.4 91.28 33.37 92.19 32.65C92.4 32.49 93.34 31.29 93.61 30.86C93.74 30.67 93.88 30.65 93.96 30.7L94.39 30.94C94.44 30.97 94.5 31.05 94.47 31.13L93.51 33.96C93.46 34.09 93.32 34.23 93.22 34.23C93.03 34.23 91.62 34.15 86 34.15C85.52 34.15 84.05 34.23 83.73 34.23C83.6 34.23 83.57 34.15 83.57 34.04V33.43C83.57 33.32 83.62 33.27 83.76 33.27H84C85.25 33.27 85.34 33.16 85.34 32.79V27.1C85.34 25.68 85.31 23.95 85.29 23.68C85.21 23.12 85.05 23.01 83.98 23.01H83.34C82.83 23.01 82.46 23.17 82.22 23.41C81.71 23.92 80.27 27.42 80 28.11C79.76 28.67 77.57 33.91 77.36 34.26C77.28 34.39 77.15 34.47 76.93 34.47C76.71 34.47 76.58 34.28 76.5 34.07C75.91 32.49 74.5 28.62 74.28 28.03L74.09 27.44C73.64 26.21 72.83 23.78 72.65 23.51C72.44 23.22 72.22 23 71.87 23H71.6C71.49 23 71.47 22.92 71.47 22.84V22.17C71.47 22.09 71.52 22.04 71.63 22.04C71.76 22.04 73.23 22.12 73.93 22.12C74.57 22.12 76.2 22.04 76.36 22.04C76.52 22.04 76.57 22.09 76.57 22.23" fill="#232D4B"/>
<path d="M162.27 0V71.1" stroke="#232D4B" stroke-width="0.61" stroke-miterlimit="10"/>
<path d="M189.74 22.24C190.87 23.16 191.79 24.65 191.79 26.69C191.79 27.8 191.49 28.98 190.68 30C189.72 31.2 188.42 32.14 186.17 32.14C185.27 32.14 183.97 31.87 182.77 31.15C181.7 30.5 180.57 28.86 180.57 26.7C180.57 25.8 180.83 24.37 181.95 22.97C183.27 21.35 184.9 21.04 186.19 21.04C187.3 21.04 188.51 21.25 189.74 22.24ZM183.96 22.54C183.04 23.43 182.61 24.98 182.61 26.18C182.61 30.09 185.02 31.48 186.28 31.48C189.32 31.48 189.8 28.11 189.8 26.85C189.8 23.57 187.57 21.7 186.13 21.7C185.86 21.7 184.99 21.55 183.96 22.54ZM195.66 27.7C195.66 28.9 195.63 30.56 195.68 30.98C195.71 31.25 195.83 31.4 196.1 31.4H196.4C196.52 31.4 196.55 31.43 196.55 31.51V31.78C196.55 31.9 196.52 31.96 196.46 31.96C196.37 31.96 195.8 31.91 194.9 31.91C194 31.91 193.21 31.96 193.09 31.96C193 31.96 192.97 31.93 192.97 31.81V31.49C192.97 31.43 193 31.4 193.12 31.4H193.72C193.99 31.4 194.1 31.22 194.1 30.89L194.08 26.38H193.12C193.03 26.38 193 26.32 193.01 26.21L193.07 25.71C193.09 25.63 193.12 25.62 193.24 25.62H194.08V25.23C194.08 24 194.53 23.03 195.22 22.31C196.03 21.53 196.84 21.23 197.72 21.23C198.38 21.23 199.1 21.53 199.37 22.01L199.4 22.03C200.2 21.34 200.95 21.04 202.11 21.04C203.16 21.04 203.89 21.52 203.89 22.15C203.89 22.6 203.47 22.96 202.99 22.96C202.54 22.96 202.27 22.72 201.94 22.3C201.76 22.03 201.52 21.82 201.19 21.82C200.86 21.82 200.56 21.94 200.26 22.33C199.81 22.9 199.84 24.05 199.84 25.14V25.62H201.86C202.37 25.62 202.88 25.6 203.3 25.51C203.57 25.48 203.78 25.45 203.9 25.45C204.02 25.45 204.04 25.51 204.02 25.63C203.99 25.87 203.99 26.83 203.99 28.07V29.71C203.99 30.28 203.96 30.82 203.99 31C203.99 31.27 204.08 31.39 204.26 31.39H204.8C204.92 31.39 204.95 31.42 204.95 31.51V31.8C204.95 31.89 204.92 31.95 204.83 31.95C204.71 31.95 204.14 31.9 203.3 31.9C202.46 31.9 201.95 31.95 201.8 31.95C201.71 31.95 201.68 31.92 201.68 31.8V31.51C201.68 31.42 201.71 31.39 201.83 31.39H202.13C202.28 31.39 202.4 31.33 202.4 31.06C202.43 30.82 202.43 29.98 202.43 29.74V27.29C202.43 26.6 202.16 26.37 201.29 26.37H199.85V30.97C199.85 31.24 200 31.39 200.18 31.39H200.57C200.72 31.39 200.75 31.42 200.75 31.53V31.77C200.75 31.89 200.72 31.95 200.63 31.95C200.54 31.95 200.03 31.9 199.25 31.9C198.47 31.9 197.72 31.95 197.6 31.95C197.51 31.95 197.48 31.92 197.48 31.8V31.48C197.48 31.42 197.51 31.39 197.63 31.39H197.9C198.17 31.39 198.28 31.21 198.28 30.88L198.26 26.37H195.69V27.69L195.66 27.7ZM198.23 25.24C198.23 24.22 198.44 23.46 198.8 22.83L198.78 22.8C198.31 22.82 197.89 22.6 197.65 22.32C197.47 22.08 197.26 21.99 196.99 21.99C196.6 21.99 196.3 22.08 196.03 22.47C195.61 23.04 195.65 24.22 195.65 25.06V25.63H198.22V25.24H198.23ZM211.3 30.76C211.3 30.76 211.36 30.87 211.3 30.94C210.92 31.41 209.87 32.1 208.76 32.1C207.74 32.1 206.92 31.83 206.35 31.11C205.78 30.39 205.63 29.79 205.63 29.03C205.63 28.08 205.99 27.03 206.74 26.34C207.37 25.77 208.09 25.47 208.94 25.47C210.69 25.47 211.08 26.37 211.08 26.82C211.08 27.18 210.84 27.48 210.42 27.48C209.91 27.48 209.67 27.12 209.52 26.73C209.31 26.22 208.98 26.11 208.59 26.11C207.99 26.11 207.24 26.79 207.24 27.86C207.24 28.76 207.27 29.38 207.83 30.3C208.24 30.96 208.9 31.11 209.38 31.11C210.13 31.11 210.6 30.85 211 30.54C211.03 30.51 211.09 30.51 211.14 30.56L211.32 30.77L211.3 30.76ZM213.56 28.58C213.56 30.11 214.66 31.02 215.52 31.02C216.45 31.02 217.02 30.63 217.34 30.15C217.4 30.04 217.46 30.04 217.52 30.07L217.75 30.21C217.83 30.26 217.86 30.32 217.75 30.51C217.43 31.08 216.67 32.1 215.01 32.1C214.05 32.1 213.37 31.89 212.84 31.29C212.15 30.49 212 29.74 212 28.81C212 27.98 212.09 27.43 212.74 26.58C213.37 25.77 214.05 25.47 215.36 25.47C217.08 25.47 217.63 27.26 217.63 27.88C217.63 28.11 217.48 28.12 217.21 28.12H213.57V28.59L213.56 28.58ZM215.43 27.57C215.75 27.57 215.93 27.48 215.93 27.36C215.93 26.91 215.78 26.02 215 26.02C214.26 26.02 213.81 26.56 213.62 27.57H215.44H215.43ZM227.51 26.35C228.22 27.06 228.55 27.84 228.55 28.73C228.55 29.62 228.19 30.38 227.62 31.02C227 31.71 226.1 32.1 225.09 32.1C224.14 32.1 223.33 31.83 222.65 31.02C221.99 30.24 221.84 29.61 221.84 28.69C221.84 27.97 222.2 26.91 223.1 26.19C223.84 25.59 224.62 25.47 225.24 25.47C226.25 25.47 227 25.86 227.51 26.36V26.35ZM226.71 28.68C226.71 27.03 225.84 26.06 225.15 26.06C224.76 26.06 224.46 26.18 224.2 26.47C223.73 27 223.55 27.63 223.55 28.73C223.55 29.6 223.61 30.17 224.02 30.82C224.28 31.23 224.61 31.47 225.21 31.47C226.2 31.47 226.71 30.22 226.71 28.69V28.68ZM232.12 27.7C232.12 28.9 232.1 30.56 232.14 30.98C232.17 31.25 232.29 31.4 232.56 31.4H233.25C233.37 31.4 233.4 31.43 233.4 31.54V31.81C233.4 31.9 233.37 31.96 233.31 31.96C233.22 31.96 232.65 31.91 231.32 31.91C230.42 31.91 229.63 31.96 229.51 31.96C229.42 31.96 229.39 31.93 229.39 31.84V31.49C229.39 31.43 229.42 31.4 229.54 31.4H230.14C230.44 31.4 230.53 31.22 230.53 30.89V26.38H229.51C229.45 26.38 229.42 26.33 229.43 26.21L229.49 25.7C229.49 25.64 229.57 25.62 229.69 25.62H230.53V25.33C230.53 23.8 230.98 22.8 231.64 22.11C232.45 21.33 233.26 21.03 234.17 21.03C234.98 21.03 235.64 21.33 235.64 21.96C235.64 22.38 235.19 22.68 234.89 22.68C234.71 22.68 234.53 22.65 234.41 22.56C234.23 22.5 234.08 22.32 233.99 22.17C233.81 21.9 233.6 21.78 233.39 21.78C233.03 21.78 232.73 21.87 232.46 22.26C232.07 22.8 232.13 24.01 232.11 25.13V25.61H233.9C234.02 25.61 234.02 25.69 234.02 25.75L233.94 26.29C233.92 26.35 233.86 26.37 233.74 26.37H232.1V27.69L232.12 27.7ZM237.61 26.47C237.49 26.47 237.4 26.41 237.4 26.26C237.4 26.14 237.49 26.05 237.69 25.97C238.11 25.82 239.42 24.71 239.75 24.07C239.81 23.95 239.9 23.92 239.99 23.92C240.11 23.92 240.17 24.01 240.17 24.13L240.11 25.62H242.1C242.19 25.62 242.22 25.68 242.21 25.74L242.06 26.37C242.04 26.43 242 26.46 241.91 26.46H240.09C240.06 27.09 240.04 27.81 240.04 28.48V29.83C240.04 31 240.54 31.24 240.84 31.24C241.17 31.24 241.5 31.16 241.71 31.06C241.82 31.01 241.86 31.01 241.89 31.09L241.98 31.27C242.01 31.36 241.98 31.42 241.92 31.48C241.71 31.63 241.08 32.08 240.02 32.08C239.12 32.08 238.44 31.36 238.44 30.73C238.44 30.19 238.49 28.98 238.49 28.41V26.45H237.62L237.61 26.47ZM247.7 28.62C247.7 27.84 247.7 27 247.31 26.6C247.07 26.36 246.83 26.24 246.47 26.24C246.08 26.24 245.69 26.45 245.36 26.78C245.24 26.93 245.09 27.23 245.09 27.52V30.77C245.09 31.25 245.15 31.4 245.36 31.4H245.72C245.81 31.4 245.87 31.43 245.87 31.54V31.81C245.87 31.9 245.84 31.96 245.75 31.96C245.63 31.96 244.97 31.91 244.19 31.91C243.26 31.91 242.69 31.96 242.57 31.96C242.49 31.96 242.45 31.93 242.45 31.84V31.51C242.45 31.43 242.51 31.4 242.59 31.4H242.97C243.21 31.4 243.42 31.34 243.47 31.16C243.53 30.86 243.55 29.99 243.55 29.29L243.52 23.92C243.52 23.08 243.34 22.78 242.83 22.57L242.56 22.48C242.47 22.45 242.44 22.42 242.44 22.36V22.21C242.44 22.15 242.47 22.12 242.65 22.03C243.1 21.91 244.12 21.4 244.61 21.16C244.79 21.1 244.88 21.04 245.03 21.04C245.15 21.04 245.18 21.16 245.15 21.4C245.12 21.67 245.12 24.71 245.12 25.45V26.38H245.21C245.63 25.79 246.44 25.46 247.15 25.46C247.81 25.46 248.2 25.67 248.65 26.06C249.34 26.66 249.31 27.41 249.31 28.27V31.16C249.31 31.37 249.58 31.4 249.82 31.4H250.09C250.21 31.4 250.24 31.43 250.24 31.51V31.84C250.24 31.92 250.21 31.96 250.12 31.96C250.03 31.96 249.55 31.91 248.63 31.91C247.71 31.91 247.19 31.96 247.04 31.96C246.95 31.96 246.92 31.93 246.92 31.85V31.49C246.92 31.43 246.95 31.4 247.03 31.4H247.29C247.47 31.4 247.68 31.34 247.71 31.1C247.74 30.89 247.74 30.11 247.74 29.63V28.62H247.7ZM252.53 28.58C252.53 30.11 253.63 31.02 254.49 31.02C255.42 31.02 255.99 30.63 256.31 30.15C256.37 30.04 256.43 30.04 256.49 30.07L256.72 30.21C256.8 30.26 256.83 30.32 256.72 30.51C256.4 31.08 255.64 32.1 253.98 32.1C253.02 32.1 252.34 31.89 251.81 31.29C251.12 30.49 250.97 29.74 250.97 28.81C250.97 27.98 251.06 27.43 251.71 26.58C252.34 25.77 253.02 25.47 254.33 25.47C256.05 25.47 256.6 27.26 256.6 27.88C256.6 28.11 256.45 28.12 256.18 28.12H252.54V28.59L252.53 28.58ZM254.4 27.57C254.72 27.57 254.9 27.48 254.9 27.36C254.9 26.91 254.75 26.02 253.97 26.02C253.23 26.02 252.78 26.56 252.59 27.57H254.41H254.4ZM267.67 21.34C267.67 21.25 267.7 21.22 267.79 21.22C267.91 21.22 268.6 21.27 269.57 21.27C270.83 21.27 271.22 21.22 271.35 21.22C271.44 21.22 271.47 21.25 271.47 21.33V21.71C271.47 21.79 271.44 21.83 271.35 21.83H270.99C270.63 21.83 270.24 21.98 269.89 22.52C269.39 23.32 268.49 25.66 268.07 26.66C267.77 27.32 265.96 31.72 265.81 32.03C265.75 32.15 265.63 32.23 265.51 32.23C265.33 32.23 265.25 32.06 265.18 31.88C264.67 30.6 263.4 27.16 262.89 25.76C262.5 24.68 261.84 22.75 261.67 22.31C261.53 21.98 261.35 21.83 261.02 21.83H260.66C260.6 21.83 260.57 21.78 260.57 21.69V21.34C260.57 21.25 260.6 21.22 260.66 21.22C260.81 21.22 261.32 21.27 262.89 21.27C264.3 21.27 265 21.22 265.12 21.22C265.24 21.22 265.27 21.27 265.27 21.34V21.67C265.27 21.78 265.24 21.82 265.15 21.82H264.43C264.04 21.82 263.8 21.97 263.8 22.2C263.8 22.32 263.8 22.5 263.85 22.71C263.96 23.25 264.53 25.03 264.83 25.9C265.04 26.47 265.85 28.85 266.09 29.66H266.12V29.63C266.48 28.79 267.44 26.29 267.59 25.84C267.83 25.13 268.76 22.86 268.76 22.24C268.76 22.06 268.61 21.82 268.19 21.82H267.78C267.72 21.82 267.67 21.76 267.67 21.68V21.33V21.34ZM272.58 27.63C272.58 27.18 272.49 26.88 271.8 26.7C271.66 26.67 271.65 26.62 271.65 26.56V26.39C271.65 26.33 271.68 26.3 271.76 26.27C271.97 26.18 273.46 25.65 273.72 25.55C273.87 25.49 273.99 25.46 274.08 25.46C274.17 25.46 274.22 25.52 274.2 25.64C274.17 25.88 274.17 26.84 274.17 28.09V29.71C274.17 30.28 274.17 30.82 274.2 31C274.23 31.27 274.29 31.39 274.44 31.39H275.04C275.16 31.39 275.19 31.42 275.19 31.5V31.8C275.19 31.89 275.16 31.95 275.07 31.95C274.95 31.95 274.26 31.9 273.25 31.9C272.38 31.9 271.81 31.95 271.63 31.95C271.55 31.95 271.51 31.92 271.51 31.8V31.51C271.51 31.42 271.57 31.39 271.66 31.39H272.32C272.47 31.39 272.55 31.33 272.56 31.09C272.58 30.64 272.59 30.16 272.59 29.74V27.62L272.58 27.63ZM273.09 23.94C272.61 23.94 272.13 23.56 272.13 23.04C272.13 22.59 272.57 22.11 273.18 22.11C273.79 22.11 274.11 22.62 274.11 22.98C274.11 23.43 273.79 23.94 273.09 23.94ZM281.54 30.76C281.54 30.76 281.6 30.87 281.54 30.94C281.16 31.41 280.11 32.1 279 32.1C277.98 32.1 277.16 31.83 276.59 31.11C276.02 30.39 275.87 29.79 275.87 29.03C275.87 28.08 276.23 27.03 276.98 26.34C277.61 25.77 278.33 25.47 279.18 25.47C280.93 25.47 281.32 26.37 281.32 26.82C281.32 27.18 281.08 27.48 280.66 27.48C280.15 27.48 279.91 27.12 279.76 26.73C279.55 26.22 279.22 26.11 278.83 26.11C278.23 26.11 277.48 26.79 277.48 27.86C277.48 28.76 277.51 29.38 278.07 30.3C278.48 30.96 279.14 31.11 279.62 31.11C280.37 31.11 280.84 30.85 281.24 30.54C281.27 30.51 281.33 30.51 281.38 30.56L281.56 30.77L281.54 30.76ZM283.8 28.58C283.8 30.11 284.9 31.02 285.76 31.02C286.69 31.02 287.26 30.63 287.58 30.15C287.64 30.04 287.7 30.04 287.76 30.07L287.99 30.21C288.07 30.26 288.1 30.32 287.99 30.51C287.67 31.08 286.91 32.1 285.25 32.1C284.29 32.1 283.61 31.89 283.08 31.29C282.39 30.49 282.24 29.74 282.24 28.81C282.24 27.98 282.33 27.43 282.98 26.58C283.61 25.77 284.29 25.47 285.6 25.47C287.32 25.47 287.87 27.26 287.87 27.88C287.87 28.11 287.72 28.12 287.45 28.12H283.81V28.59L283.8 28.58ZM285.67 27.57C285.99 27.57 286.17 27.48 286.17 27.36C286.17 26.91 286.02 26.02 285.24 26.02C284.5 26.02 284.05 26.56 283.86 27.57H285.68H285.67ZM293.49 24.91C293.49 23.92 293.49 22.32 293.47 22.16C293.44 21.9 293.27 21.83 292.94 21.83H292.16C292.1 21.83 292.07 21.8 292.07 21.72V21.34C292.07 21.25 292.1 21.22 292.16 21.22C292.34 21.22 292.88 21.27 294.39 21.27C294.66 21.27 295.53 21.22 296.04 21.22C297.85 21.22 298.72 21.39 299.59 21.99C300.28 22.5 300.73 23.34 300.73 24.28C300.73 26.15 299.29 27.32 296.73 27.32C296.22 27.32 295.77 27.32 295.38 27.26V27.92C295.38 28.64 295.38 30.69 295.4 30.88C295.45 31.21 295.6 31.36 295.87 31.36H296.71C296.83 31.36 296.83 31.42 296.83 31.47V31.82C296.83 31.91 296.83 31.97 296.71 31.97C296.5 31.97 296.02 31.92 294.39 31.92C293.07 31.92 292.46 31.97 292.31 31.97C292.19 31.97 292.19 31.91 292.19 31.86V31.48C292.19 31.39 292.19 31.36 292.28 31.36H292.76C293.27 31.36 293.39 31.3 293.44 30.89C293.46 30.74 293.49 28.39 293.49 26.65V24.9V24.91ZM295.39 26.71C295.66 26.8 296.08 26.83 296.47 26.83C297.13 26.83 297.91 26.32 298.28 25.81C298.58 25.36 298.64 24.79 298.64 24.25C298.64 22.2 296.99 21.74 296.26 21.74C295.99 21.74 295.63 21.72 295.39 21.85V26.72V26.71ZM302.29 28.05C302.29 27.36 302.17 27.12 301.72 26.88L301.45 26.73C301.36 26.7 301.33 26.67 301.33 26.61V26.52C301.33 26.46 301.36 26.43 301.45 26.38L303.27 25.52C303.36 25.49 303.42 25.46 303.51 25.46C303.6 25.46 303.63 25.55 303.65 25.64L303.79 26.75H303.85C304.36 25.91 304.99 25.4 305.66 25.4C306.14 25.4 306.44 25.73 306.44 26.15C306.44 26.57 306.02 26.96 305.63 26.96C305.42 26.96 305.24 26.9 305.12 26.84C305 26.75 304.85 26.72 304.7 26.72C304.52 26.72 304.25 26.84 304.07 27.16C303.95 27.37 303.89 27.7 303.89 27.9V30.77C303.89 31.25 304.01 31.4 304.31 31.4H304.97C305.06 31.4 305.09 31.43 305.09 31.51V31.86C305.09 31.94 305.06 31.97 304.98 31.97C304.87 31.97 304.21 31.92 303.11 31.92C302.01 31.92 301.47 31.97 301.35 31.97C301.27 31.97 301.24 31.94 301.24 31.86V31.53C301.24 31.44 301.27 31.41 301.38 31.41H301.91C302.15 31.41 302.3 31.29 302.3 31V28.05H302.29ZM308.43 28.58C308.43 30.11 309.53 31.02 310.39 31.02C311.32 31.02 311.89 30.63 312.21 30.15C312.27 30.04 312.33 30.04 312.39 30.07L312.62 30.21C312.7 30.26 312.73 30.32 312.62 30.51C312.3 31.08 311.54 32.1 309.88 32.1C308.92 32.1 308.24 31.89 307.71 31.29C307.02 30.49 306.87 29.74 306.87 28.81C306.87 27.98 306.96 27.43 307.61 26.58C308.24 25.77 308.92 25.47 310.23 25.47C311.95 25.47 312.5 27.26 312.5 27.88C312.5 28.11 312.35 28.12 312.08 28.12H308.44V28.59L308.43 28.58ZM310.3 27.57C310.62 27.57 310.8 27.48 310.8 27.36C310.8 26.91 310.65 26.02 309.87 26.02C309.13 26.02 308.68 26.56 308.49 27.57H310.31H310.3ZM313.58 30.02C313.56 29.96 313.58 29.91 313.63 29.9L313.92 29.81C313.98 29.79 314.03 29.79 314.06 29.86L314.56 30.7C314.83 31.15 315.12 31.51 315.85 31.51C316.44 31.51 316.92 31.15 316.92 30.59C316.92 29.99 316.53 29.72 315.48 29.42C314.46 29.12 313.64 28.61 313.64 27.54C313.64 26.88 313.88 26.34 314.41 25.96C314.94 25.6 315.36 25.46 315.97 25.46C316.71 25.46 317.16 25.64 317.43 25.79C317.66 25.91 317.7 25.97 317.72 26.06L317.92 27.08C317.94 27.14 317.94 27.22 317.9 27.25L317.61 27.39C317.61 27.39 317.52 27.39 317.49 27.33L316.77 26.52C316.59 26.32 316.32 26.05 315.82 26.05C315.26 26.05 314.78 26.38 314.78 26.91C314.78 27.53 315.23 27.71 316.13 27.95C316.82 28.13 317.24 28.31 317.63 28.73C317.96 29.06 318.08 29.42 318.08 29.93C318.08 31.19 317.06 32.1 315.57 32.1C314.77 32.1 314.11 31.84 313.95 31.71C313.89 31.65 313.84 31.6 313.83 31.54L313.59 30.02H313.58ZM319.98 27.63C319.98 27.18 319.89 26.88 319.2 26.7C319.06 26.67 319.05 26.62 319.05 26.56V26.39C319.05 26.33 319.08 26.3 319.16 26.27C319.37 26.18 320.86 25.65 321.12 25.55C321.27 25.49 321.39 25.46 321.48 25.46C321.57 25.46 321.62 25.52 321.6 25.64C321.57 25.88 321.57 26.84 321.57 28.09V29.71C321.57 30.28 321.57 30.82 321.6 31C321.63 31.27 321.69 31.39 321.84 31.39H322.44C322.56 31.39 322.59 31.42 322.59 31.5V31.8C322.59 31.89 322.56 31.95 322.47 31.95C322.35 31.95 321.66 31.9 320.65 31.9C319.78 31.9 319.21 31.95 319.03 31.95C318.95 31.95 318.91 31.92 318.91 31.8V31.51C318.91 31.42 318.97 31.39 319.06 31.39H319.72C319.87 31.39 319.95 31.33 319.96 31.09C319.98 30.64 319.99 30.16 319.99 29.74V27.62L319.98 27.63ZM320.49 23.94C320.01 23.94 319.53 23.56 319.53 23.04C319.53 22.59 319.97 22.11 320.58 22.11C321.19 22.11 321.51 22.62 321.51 22.98C321.51 23.43 321.19 23.94 320.49 23.94ZM329.53 29.45C329.53 30.02 329.56 30.62 329.68 30.77C329.83 30.95 330.1 31.01 330.31 31.04C330.52 31.04 330.58 31.07 330.61 31.13L330.64 31.31C330.67 31.4 330.64 31.46 330.55 31.49L328.53 32.06C328.44 32.09 328.35 32.03 328.32 31.91L328.11 31.22C327.63 31.73 326.7 32.09 326 32.09C325.41 32.09 324.75 31.91 324.19 31.35C323.56 30.73 323.26 30.1 323.26 29.14C323.26 28.1 323.53 27.26 324.31 26.42C324.91 25.79 325.63 25.46 326.54 25.46C327.11 25.46 327.59 25.55 327.95 25.67L327.9 22.75C327.88 22.24 327.76 22.03 326.95 21.88C326.86 21.85 326.83 21.82 326.83 21.76V21.49C326.83 21.43 326.86 21.4 326.95 21.37C327.7 21.28 328.7 21.19 329.09 21.1C329.27 21.07 329.36 21.04 329.48 21.04C329.54 21.04 329.6 21.13 329.57 21.31C329.51 22.06 329.51 24.23 329.51 26.17V29.45H329.53ZM327.96 27.48C327.96 27.24 327.93 26.97 327.81 26.76C327.6 26.38 327.12 26.05 326.49 26.05C326.13 26.05 325.74 26.14 325.45 26.5C324.98 27.06 324.85 27.69 324.85 28.31C324.85 30.03 325.77 31.26 326.7 31.26C327.3 31.26 327.69 30.96 327.84 30.72C327.93 30.54 327.96 30.36 327.96 30.12V27.49V27.48ZM332.87 28.58C332.87 30.11 333.97 31.02 334.83 31.02C335.76 31.02 336.33 30.63 336.65 30.15C336.71 30.04 336.77 30.04 336.83 30.07L337.06 30.21C337.14 30.26 337.17 30.32 337.06 30.51C336.74 31.08 335.98 32.1 334.32 32.1C333.36 32.1 332.68 31.89 332.15 31.29C331.46 30.49 331.31 29.74 331.31 28.81C331.31 27.98 331.4 27.43 332.05 26.58C332.68 25.77 333.36 25.47 334.67 25.47C336.39 25.47 336.94 27.26 336.94 27.88C336.94 28.11 336.79 28.12 336.52 28.12H332.88V28.59L332.87 28.58ZM334.74 27.57C335.06 27.57 335.24 27.48 335.24 27.36C335.24 26.91 335.09 26.02 334.31 26.02C333.57 26.02 333.12 26.56 332.93 27.57H334.75H334.74ZM339.73 25.58C339.85 25.52 339.94 25.46 340.03 25.46C340.12 25.46 340.18 25.52 340.21 25.64L340.33 26.42H340.42C340.6 26.21 340.87 25.97 341.17 25.82C341.53 25.61 341.92 25.46 342.37 25.46C342.88 25.46 343.36 25.55 343.69 25.82C344.35 26.3 344.52 26.75 344.52 27.37V29.54C344.52 30.02 344.5 30.68 344.5 30.98C344.5 31.31 344.68 31.4 344.86 31.4H345.28C345.42 31.4 345.46 31.43 345.46 31.51V31.86C345.46 31.94 345.43 31.97 345.34 31.97C345.22 31.97 344.77 31.92 343.72 31.92C342.82 31.92 342.34 31.97 342.25 31.97C342.16 31.97 342.13 31.91 342.13 31.79V31.53C342.13 31.44 342.16 31.41 342.31 31.41H342.61C342.73 31.41 342.85 31.32 342.88 31.05C342.93 30.66 342.94 30.24 342.94 29.64V27.91C342.94 27.31 342.91 26.92 342.55 26.62C342.25 26.35 341.98 26.35 341.65 26.35C341.41 26.35 341.05 26.41 340.69 26.74C340.45 26.98 340.37 27.4 340.37 27.81V30.91C340.37 31.24 340.45 31.42 340.66 31.42H340.93C341.05 31.42 341.08 31.45 341.08 31.56V31.83C341.08 31.92 341.05 31.98 340.96 31.98C340.87 31.98 340.45 31.93 339.55 31.93C338.65 31.93 338.14 31.98 338.05 31.98C337.99 31.98 337.96 31.92 337.96 31.83V31.54C337.96 31.45 337.99 31.42 338.11 31.42H338.41C338.59 31.42 338.8 31.36 338.8 31.12V27.73C338.8 27.28 338.53 27.04 338.17 26.86L338.05 26.8C337.96 26.77 337.93 26.71 337.93 26.65V26.53C337.93 26.47 337.99 26.41 338.08 26.38L339.73 25.6V25.58ZM346.22 26.47C346.1 26.47 346.01 26.41 346.01 26.26C346.01 26.14 346.1 26.05 346.3 25.97C346.72 25.82 348.03 24.71 348.36 24.07C348.42 23.95 348.51 23.92 348.6 23.92C348.72 23.92 348.78 24.01 348.78 24.13L348.72 25.62H350.71C350.8 25.62 350.83 25.68 350.82 25.74L350.67 26.37C350.65 26.43 350.61 26.46 350.52 26.46H348.7C348.67 27.09 348.65 27.81 348.65 28.48V29.83C348.65 31 349.15 31.24 349.45 31.24C349.78 31.24 350.11 31.16 350.32 31.06C350.43 31.01 350.47 31.01 350.5 31.09L350.59 31.27C350.62 31.36 350.59 31.42 350.53 31.48C350.32 31.63 349.69 32.08 348.63 32.08C347.73 32.08 347.05 31.36 347.05 30.73C347.05 30.19 347.1 28.98 347.1 28.41V26.45H346.23L346.22 26.47Z" fill="#232D4B"/>
<path d="M184 44.48V45.8C184 47 183.985 48.65 184.015 49.07C184.045 49.34 184.165 49.49 184.435 49.49H185.125C185.245 49.49 185.275 49.52 185.275 49.625V49.895C185.275 49.985 185.245 50.045 185.185 50.045C185.095 50.045 184.525 50 183.205 50C182.305 50 181.525 50.045 181.405 50.045C181.315 50.045 181.285 50.015 181.285 49.925V49.58C181.285 49.52 181.315 49.49 181.435 49.49H182.035C182.335 49.49 182.425 49.31 182.425 48.98V44.48H181.405C181.345 44.48 181.315 44.435 181.33 44.315L181.39 43.805C181.39 43.745 181.465 43.73 181.585 43.73H182.425V43.445C182.425 41.915 182.875 40.925 183.535 40.235C184.345 39.455 185.155 39.155 186.055 39.155C186.865 39.155 187.525 39.455 187.525 40.085C187.525 40.505 187.075 40.805 186.775 40.805C186.595 40.805 186.415 40.775 186.295 40.685C186.115 40.625 185.965 40.445 185.875 40.295C185.695 40.025 185.485 39.905 185.275 39.905C184.915 39.905 184.615 39.995 184.345 40.385C183.955 40.925 184.015 42.125 184 43.25V43.73H185.785C185.905 43.73 185.905 43.805 185.905 43.865L185.83 44.405C185.815 44.465 185.755 44.48 185.635 44.48H184ZM189.675 43.565C190.68 43.565 191.43 43.955 191.94 44.45C192.645 45.155 192.975 45.935 192.975 46.82C192.975 47.66 192.615 48.47 192.045 49.1C191.43 49.79 190.53 50.18 189.525 50.18C188.58 50.18 187.77 49.91 187.095 49.1C186.435 48.32 186.285 47.69 186.285 46.775C186.285 46.055 186.645 45.005 187.545 44.285C188.28 43.685 189.06 43.565 189.675 43.565ZM189.645 49.55C190.635 49.55 191.145 48.305 191.145 46.775C191.145 45.125 190.275 44.165 189.585 44.165C189.195 44.165 188.895 44.285 188.64 44.57C188.175 45.095 187.995 45.725 187.995 46.82C187.995 47.69 188.055 48.26 188.46 48.905C188.715 49.31 189.045 49.55 189.645 49.55ZM194.816 49.085V46.145C194.816 45.455 194.696 45.215 194.246 44.975L193.976 44.825C193.886 44.795 193.856 44.765 193.856 44.705V44.615C193.856 44.555 193.886 44.525 193.976 44.48L195.791 43.625C195.881 43.595 195.941 43.565 196.031 43.565C196.121 43.565 196.151 43.655 196.166 43.745L196.301 44.855H196.361C196.871 44.015 197.501 43.505 198.161 43.505C198.641 43.505 198.941 43.835 198.941 44.255C198.941 44.675 198.521 45.065 198.131 45.065C197.921 45.065 197.741 45.005 197.621 44.945C197.501 44.855 197.351 44.825 197.201 44.825C197.021 44.825 196.751 44.945 196.571 45.26C196.451 45.47 196.391 45.8 196.391 45.995V48.86C196.391 49.34 196.511 49.49 196.811 49.49H197.471C197.561 49.49 197.591 49.52 197.591 49.595V49.94C197.591 50.015 197.561 50.045 197.486 50.045C197.381 50.045 196.721 50 195.626 50C194.576 50 193.991 50.045 193.871 50.045C193.796 50.045 193.766 50.015 193.766 49.94V49.61C193.766 49.52 193.796 49.49 193.901 49.49H194.426C194.666 49.49 194.816 49.37 194.816 49.085ZM205.727 45.26V46.07C205.727 46.97 205.757 48.65 205.787 48.875C205.832 49.175 205.937 49.445 206.177 49.445H206.927C207.017 49.445 207.047 49.49 207.047 49.55V49.91C207.047 50.015 207.002 50.045 206.882 50.045C206.687 50.045 206.387 50 204.827 50C203.357 50 202.997 50.045 202.847 50.045C202.757 50.045 202.727 50 202.727 49.91V49.565C202.727 49.49 202.757 49.445 202.817 49.445H203.327C203.657 49.445 203.897 49.355 203.897 48.95C203.927 47.45 203.927 46.04 203.927 44.63V40.685C203.927 40.175 203.717 39.935 203.447 39.935H202.862C202.787 39.935 202.757 39.905 202.757 39.845V39.44C202.757 39.365 202.787 39.335 202.862 39.335C202.967 39.335 203.447 39.38 204.917 39.38C205.757 39.38 207.137 39.335 207.587 39.335C208.787 39.335 209.717 39.74 210.317 40.28C210.857 40.76 211.127 41.39 211.127 41.96C211.127 43.85 209.987 44.63 208.337 44.9V44.96C208.757 45.11 209.027 45.38 209.237 45.65C209.417 45.89 210.347 47.3 210.467 47.48C210.557 47.63 211.517 48.98 211.742 49.19C212.027 49.445 212.447 49.475 212.807 49.475C212.897 49.475 212.927 49.52 212.927 49.58V49.895C212.927 50 212.897 50.045 212.807 50.045C212.687 50.045 212.297 50 211.337 50C210.917 50 210.347 50.03 210.017 50.045C209.837 49.91 209.552 49.505 209.357 49.19C209.087 48.77 208.502 47.69 208.367 47.45C208.217 47.18 207.797 46.49 207.557 46.16C207.182 45.635 206.837 45.23 206.207 45.23C206.147 45.23 205.892 45.245 205.727 45.26ZM205.787 40.4L205.757 44.72C205.967 44.75 206.147 44.78 206.327 44.78C208.667 44.78 209.147 42.89 209.147 42.2C209.147 41.51 208.862 40.865 208.487 40.52C207.947 40.04 207.257 39.875 206.507 39.875C206.267 39.875 206.087 39.89 205.967 39.965C205.847 40.04 205.787 40.22 205.787 40.4ZM214.739 46.205V46.67C214.739 48.2 215.834 49.1 216.689 49.1C217.619 49.1 218.189 48.71 218.504 48.23C218.564 48.125 218.624 48.125 218.684 48.155L218.909 48.29C218.984 48.335 219.014 48.395 218.909 48.59C218.594 49.16 217.829 50.18 216.179 50.18C215.219 50.18 214.544 49.97 214.019 49.37C213.329 48.575 213.179 47.825 213.179 46.895C213.179 46.07 213.269 45.515 213.914 44.675C214.544 43.865 215.219 43.565 216.524 43.565C218.234 43.565 218.789 45.35 218.789 45.965C218.789 46.19 218.639 46.205 218.369 46.205H214.739ZM214.784 45.665H216.599C216.914 45.665 217.094 45.575 217.094 45.455C217.094 45.005 216.944 44.12 216.164 44.12C215.429 44.12 214.979 44.66 214.784 45.665ZM220.028 49.625L219.788 48.11C219.773 48.05 219.788 48.005 219.833 47.99L220.118 47.9C220.178 47.885 220.223 47.885 220.253 47.945L220.748 48.785C221.018 49.235 221.303 49.595 222.038 49.595C222.623 49.595 223.103 49.235 223.103 48.68C223.103 48.08 222.713 47.81 221.663 47.51C220.643 47.21 219.833 46.7 219.833 45.635C219.833 44.975 220.073 44.435 220.598 44.06C221.123 43.7 221.543 43.565 222.158 43.565C222.893 43.565 223.343 43.745 223.613 43.895C223.838 44.015 223.883 44.075 223.898 44.165L224.093 45.185C224.108 45.245 224.108 45.32 224.078 45.35L223.793 45.485C223.748 45.5 223.703 45.485 223.673 45.425L222.953 44.615C222.773 44.42 222.503 44.15 222.008 44.15C221.453 44.15 220.973 44.48 220.973 45.005C220.973 45.62 221.423 45.8 222.323 46.04C223.013 46.22 223.433 46.4 223.823 46.82C224.153 47.15 224.273 47.51 224.273 48.02C224.273 49.28 223.253 50.18 221.768 50.18C220.973 50.18 220.313 49.925 220.148 49.79C220.088 49.73 220.043 49.685 220.028 49.625ZM226.795 46.205V46.67C226.795 48.2 227.89 49.1 228.745 49.1C229.675 49.1 230.245 48.71 230.56 48.23C230.62 48.125 230.68 48.125 230.74 48.155L230.965 48.29C231.04 48.335 231.07 48.395 230.965 48.59C230.65 49.16 229.885 50.18 228.235 50.18C227.275 50.18 226.6 49.97 226.075 49.37C225.385 48.575 225.235 47.825 225.235 46.895C225.235 46.07 225.325 45.515 225.97 44.675C226.6 43.865 227.275 43.565 228.58 43.565C230.29 43.565 230.845 45.35 230.845 45.965C230.845 46.19 230.695 46.205 230.425 46.205H226.795ZM226.84 45.665H228.655C228.97 45.665 229.15 45.575 229.15 45.455C229.15 45.005 229 44.12 228.22 44.12C227.485 44.12 227.035 44.66 226.84 45.665ZM235.279 49.265H235.219C234.889 49.625 234.499 49.88 233.914 50.075C233.569 50.18 233.254 50.18 232.954 50.18C232.399 50.18 231.919 49.73 231.919 48.89C231.919 48.2 232.219 47.525 233.299 47.045C234.229 46.595 234.799 46.355 235.129 46.115V45.335C235.099 45.035 235.069 44.675 234.889 44.495C234.739 44.33 234.469 44.27 234.139 44.27C233.869 44.27 233.509 44.36 233.269 44.54C233.059 44.69 233.209 44.915 233.209 45.275C233.209 45.815 232.939 46.145 232.309 46.145C232.039 46.145 231.799 45.965 231.799 45.635C231.799 45.215 232.039 44.735 232.489 44.405C233.119 43.925 233.929 43.565 234.919 43.565C235.759 43.565 236.029 43.745 236.299 43.985C236.629 44.285 236.659 44.705 236.659 45.11L236.689 47.48V48.2C236.689 49.01 236.809 49.25 237.079 49.25C237.289 49.25 237.499 49.13 237.559 49.01C237.619 48.92 237.649 48.92 237.709 48.95L237.889 49.07C237.949 49.1 237.979 49.16 237.919 49.31C237.769 49.58 237.409 50.18 236.539 50.18C235.969 50.18 235.489 49.91 235.279 49.265ZM235.129 48.635V46.67C234.469 47.09 233.479 47.345 233.479 48.44C233.479 49.055 233.809 49.355 234.169 49.355C234.589 49.325 235.129 48.905 235.129 48.635ZM239.274 49.085V46.145C239.274 45.455 239.154 45.215 238.704 44.975L238.434 44.825C238.344 44.795 238.314 44.765 238.314 44.705V44.615C238.314 44.555 238.344 44.525 238.434 44.48L240.249 43.625C240.339 43.595 240.399 43.565 240.489 43.565C240.579 43.565 240.609 43.655 240.624 43.745L240.759 44.855H240.819C241.329 44.015 241.959 43.505 242.619 43.505C243.099 43.505 243.399 43.835 243.399 44.255C243.399 44.675 242.979 45.065 242.589 45.065C242.379 45.065 242.199 45.005 242.079 44.945C241.959 44.855 241.809 44.825 241.659 44.825C241.479 44.825 241.209 44.945 241.029 45.26C240.909 45.47 240.849 45.8 240.849 45.995V48.86C240.849 49.34 240.969 49.49 241.269 49.49H241.929C242.019 49.49 242.049 49.52 242.049 49.595V49.94C242.049 50.015 242.019 50.045 241.944 50.045C241.839 50.045 241.179 50 240.084 50C239.034 50 238.449 50.045 238.329 50.045C238.254 50.045 238.224 50.015 238.224 49.94V49.61C238.224 49.52 238.254 49.49 238.359 49.49H238.884C239.124 49.49 239.274 49.37 239.274 49.085ZM249.094 48.635L249.274 48.845C249.319 48.89 249.334 48.95 249.274 49.025C248.899 49.49 247.849 50.18 246.739 50.18C245.719 50.18 244.909 49.91 244.339 49.19C243.769 48.47 243.619 47.87 243.619 47.12C243.619 46.175 243.979 45.125 244.729 44.435C245.359 43.865 246.079 43.565 246.919 43.565C248.659 43.565 249.049 44.465 249.049 44.915C249.049 45.275 248.809 45.575 248.389 45.575C247.879 45.575 247.639 45.215 247.489 44.825C247.279 44.315 246.949 44.21 246.559 44.21C245.959 44.21 245.209 44.885 245.209 45.95C245.209 46.85 245.239 47.465 245.794 48.38C246.199 49.04 246.859 49.19 247.339 49.19C248.089 49.19 248.554 48.935 248.959 48.62C248.989 48.59 249.049 48.59 249.094 48.635ZM254.956 47.72V46.715C254.956 45.935 254.956 45.095 254.566 44.705C254.326 44.465 254.086 44.345 253.726 44.345C253.336 44.345 252.946 44.555 252.616 44.885C252.496 45.035 252.346 45.335 252.346 45.62V48.86C252.346 49.34 252.406 49.49 252.616 49.49H252.976C253.066 49.49 253.126 49.52 253.126 49.625V49.895C253.126 49.985 253.096 50.045 253.006 50.045C252.886 50.045 252.226 50 251.446 50C250.516 50 249.946 50.045 249.826 50.045C249.751 50.045 249.706 50.015 249.706 49.925V49.595C249.706 49.52 249.766 49.49 249.841 49.49H250.216C250.456 49.49 250.666 49.43 250.711 49.25C250.771 48.95 250.786 48.08 250.786 47.39L250.756 42.035C250.756 41.195 250.576 40.895 250.066 40.685L249.796 40.595C249.706 40.565 249.676 40.535 249.676 40.475V40.325C249.676 40.265 249.706 40.235 249.886 40.145C250.336 40.025 251.356 39.515 251.836 39.275C252.016 39.215 252.106 39.155 252.256 39.155C252.376 39.155 252.406 39.275 252.376 39.515C252.346 39.785 252.346 42.815 252.346 43.55V44.48H252.436C252.856 43.895 253.666 43.565 254.371 43.565C255.031 43.565 255.421 43.775 255.871 44.165C256.561 44.765 256.531 45.515 256.531 46.37V49.25C256.531 49.46 256.801 49.49 257.041 49.49H257.311C257.431 49.49 257.461 49.52 257.461 49.595V49.925C257.461 50 257.431 50.045 257.341 50.045C257.251 50.045 256.771 50 255.856 50C254.956 50 254.416 50.045 254.266 50.045C254.176 50.045 254.146 50.015 254.146 49.94V49.58C254.146 49.52 254.176 49.49 254.251 49.49H254.506C254.686 49.49 254.896 49.43 254.926 49.19C254.956 48.98 254.956 48.2 254.956 47.72Z" fill="#232D4B"/>
</g>
<defs>
<clipPath id="clip0_429_667">
<rect width="350.81" height="71.1" fill="white"/>
</clipPath>
</defs>
</svg>
